G04 start of page 8 for group -4079 idx -4079
G04 Title: (unknown), topsilk *
G04 Creator: pcb 20080202 *
G04 CreationDate: Mi 16 Sep 2009 19:53:06 GMT UTC *
G04 For: stettberger *
G04 Format: Gerber/RS-274X *
G04 PCB-Dimensions: 382677 150394 *
G04 PCB-Coordinate-Origin: lower left *
%MOIN*%
%FSLAX24Y24*%
%LNFRONTSILK*%
%ADD12C,0.0200*%
%ADD13C,0.0100*%
G54D13*X16000Y6139D02*Y4739D01*
X15992Y4732D02*G75*G03X15992Y6146I707J707D01*G01*
X13900Y11439D02*Y10839D01*
X12500Y11439D02*Y10839D01*
G54D12*X15200Y9639D02*X11200D01*
Y11439D02*X15200D01*
Y10839D02*X11200D01*
X15200Y11439D02*Y9639D01*
X11200D02*Y11439D01*
G54D13*X11100Y4939D02*X12600D01*
X13600D02*X15100D01*
X11100Y8939D02*Y4939D01*
Y8939D02*X15100D01*
Y4939D01*
X13600D02*G75*G03X12600Y4939I-500J0D01*G01*
X13750Y4039D02*X14500D01*
X13750Y4439D02*Y3639D01*
X13250Y4439D02*Y3639D01*
X12500Y4039D02*X13250D01*
X12100Y4539D02*Y3539D01*
X14900D01*
Y4539D02*Y3539D01*
X12100Y4539D02*X14900D01*
X7200Y2439D02*Y439D01*
X3200Y2439D02*Y439D01*
X7200D01*
X3200Y2439D02*X7200D01*
G54D12*X11700D02*X12700D01*
X8700D02*X9700D01*
Y2939D02*Y1939D01*
X11700D01*
Y2939D02*Y1939D01*
X9700Y2939D02*X11700D01*
G54D13*X13500Y12139D02*X14250D01*
Y12539D02*Y11739D01*
X14750Y12539D02*Y11739D01*
Y12139D02*X15500D01*
X15900Y12639D02*Y11639D01*
X13100Y12639D02*X15900D01*
X13100D02*Y11639D01*
X15900D01*
X10200Y12539D02*X10950D01*
Y12939D02*Y12139D01*
X11450Y12939D02*Y12139D01*
Y12539D02*X12200D01*
X12600Y13039D02*Y12039D01*
X9800Y13039D02*X12600D01*
X9800D02*Y12039D01*
X12600D01*
G54D12*X7700Y9839D02*Y8839D01*
Y6839D02*Y5839D01*
X7200Y6839D02*X8200D01*
Y8839D02*Y6839D01*
X7200Y8839D02*X8200D01*
X7200D02*Y6839D01*
G54D13*X10800Y11669D02*Y7609D01*
X9600D02*X10800D01*
X9600Y11669D02*Y7609D01*
Y11669D02*X10800D01*
X9700Y10139D02*X10700D01*
X9700Y9139D02*X10200Y10139D01*
X9700Y9139D02*X10700D01*
X10200Y10139D02*X10700Y9139D01*
X10200D02*Y8139D01*
Y11139D02*Y10139D01*
G54D12*X8800Y9839D02*Y8839D01*
Y6839D02*Y5839D01*
X8300Y6839D02*X9300D01*
Y8839D02*Y6839D01*
X8300Y8839D02*X9300D01*
X8300D02*Y6839D01*
G54D13*Y2939D02*X9300D01*
X8300Y4939D02*X9300D01*
X8300D02*Y2939D01*
X9300Y4939D02*Y2939D01*
X9700Y4239D02*X10700D01*
X9700Y6239D02*X10700D01*
X9700D02*Y4239D01*
X10700Y6239D02*Y4239D01*
X5326Y11529D02*X5350Y11505D01*
Y5253D01*
X82Y11505D02*Y5253D01*
Y11505D02*X106Y11529D01*
X1882D01*
X3282D02*X5326D01*
X82Y5229D02*X1882D01*
X3282D02*X5326D01*
X5350Y5253D01*
X2600Y12039D02*G75*G03X2600Y12039I0J-700D01*G01*
X2582Y6129D02*G75*G03X2582Y6129I0J-700D01*G01*
X18400Y10739D02*X18800D01*
X18600Y10939D02*Y10539D01*
X17600Y9489D02*Y8739D01*
X16600Y9489D02*X18600D01*
X16600Y9989D02*X18600D01*
X17600Y10739D02*Y9989D01*
Y11939D02*G75*G03X17600Y11939I0J-2200D01*G01*
X6900Y4939D02*X7900D01*
X6900Y2939D02*X7900D01*
Y4939D02*Y2939D01*
X6900Y4939D02*Y2939D01*
G54D12*X28600Y639D02*X30600D01*
X28600Y1639D02*Y639D01*
Y1639D02*X30600D01*
Y639D01*
Y1139D02*X31600D01*
X27600D02*X28600D01*
G54D13*X24800Y2239D02*X26200D01*
X24792Y2246D02*G75*G03X26207Y2246I707J-707D01*G01*
G54D12*X28600Y1739D02*X30600D01*
X28600Y2739D02*Y1739D01*
Y2739D02*X30600D01*
Y1739D01*
Y2239D02*X31600D01*
X27600D02*X28600D01*
X18400Y6939D02*Y5939D01*
Y3939D02*Y2939D01*
X17900Y3939D02*X18900D01*
Y5939D02*Y3939D01*
X17900Y5939D02*X18900D01*
X17900D02*Y3939D01*
X21600Y6039D02*Y4039D01*
Y6039D02*X22600D01*
Y4039D01*
X21600D02*X22600D01*
X22100D02*Y3039D01*
Y7039D02*Y6039D01*
G54D13*X21600Y2239D02*X23000D01*
X21592Y2246D02*G75*G03X23007Y2246I707J-707D01*G01*
G54D12*X23100Y5939D02*Y3939D01*
Y5939D02*X24100D01*
Y3939D01*
X23100D02*X24100D01*
X23600D02*Y2939D01*
Y6939D02*Y5939D01*
X19500Y6939D02*Y5939D01*
Y3939D02*Y2939D01*
X19000Y3939D02*X20000D01*
Y5939D02*Y3939D01*
X19000Y5939D02*X20000D01*
X19000D02*Y3939D01*
G54D13*X24600Y12939D02*Y12539D01*
X24400Y12739D02*X24800D01*
X23400Y13339D02*X23750D01*
Y14339D02*Y12339D01*
X24050Y14339D02*Y12339D01*
Y13339D02*X24400D01*
X25400D02*G75*G03X25400Y13339I-1500J0D01*G01*
X21000Y14139D02*X21400D01*
X21200Y14339D02*Y13939D01*
X20600Y13289D02*Y12939D01*
X19600Y13289D02*X21600D01*
X19600Y13589D02*X21600D01*
X20600Y13939D02*Y13589D01*
Y14939D02*G75*G03X20600Y14939I0J-1500D01*G01*
X27800Y12939D02*Y12539D01*
X27600Y12739D02*X28000D01*
X26600Y13339D02*X26950D01*
Y14339D02*Y12339D01*
X27250Y14339D02*Y12339D01*
Y13339D02*X27600D01*
X28600D02*G75*G03X28600Y13339I-1500J0D01*G01*
X37910Y2019D02*X38210D01*
X37910Y14139D02*Y2019D01*
Y14139D02*X38210D01*
Y2019D01*
X37910Y2619D02*X38210D01*
X37910Y3819D02*X38210D01*
X37910Y13539D02*X38210D01*
X37910Y12339D02*X38210D01*
G54D12*X36860Y4319D02*X37910D01*
X36860Y11839D02*Y4319D01*
Y11839D02*X37910D01*
G54D13*Y4319D01*
G54D12*X34400Y10239D02*X36860D01*
X34400Y9159D02*X36860D01*
X34400Y8079D02*X36860D01*
X34400Y6999D02*X36860D01*
X34400Y5919D02*X36860D01*
X35520Y9699D02*X36860D01*
X35520Y8619D02*X36860D01*
X35520Y7539D02*X36860D01*
X35520Y6459D02*X36860D01*
G54D13*X28100Y8939D02*Y7439D01*
Y11439D02*Y9939D01*
X20100Y7439D02*X28100D01*
X20100Y11439D02*Y7439D01*
Y11439D02*X28100D01*
Y9939D02*G75*G03X28100Y8939I0J-500D01*G01*
X29200Y9639D02*X29600D01*
X29400Y9839D02*Y9439D01*
X30000Y10839D02*Y10489D01*
X29000D02*X31000D01*
X29000Y10189D02*X31000D01*
X30000D02*Y9839D01*
Y8839D02*G75*G03X30000Y8839I0J1500D01*G01*
X26600Y6739D02*X27350D01*
Y7139D02*Y6339D01*
X27850Y7139D02*Y6339D01*
Y6739D02*X28600D01*
X29000Y7239D02*Y6239D01*
X26200Y7239D02*X29000D01*
X26200D02*Y6239D01*
X29000D01*
X31720Y4147D02*Y3331D01*
X31708Y3739D02*G75*G03X31708Y3739I-708J0D01*G01*
X31717Y4153D02*G75*G03X31717Y3325I-717J-414D01*G01*
X28300Y4039D02*Y3639D01*
X28100Y3839D02*X28500D01*
X27100Y4439D02*X27450D01*
Y5439D02*Y3439D01*
X27750Y5439D02*Y3439D01*
Y4439D02*X28100D01*
X29100D02*G75*G03X29100Y4439I-1500J0D01*G01*
X31720Y5947D02*Y5131D01*
X31708Y5539D02*G75*G03X31708Y5539I-708J0D01*G01*
X31717Y5953D02*G75*G03X31717Y5125I-717J-414D01*G01*
X15550Y4539D02*X15850D01*
X15550D02*X15500Y4589D01*
Y4689D02*Y4589D01*
Y4689D02*X15550Y4739D01*
X15850D01*
X15900Y4689D02*X15850Y4739D01*
X15900Y4689D02*Y4589D01*
X15850Y4539D02*X15900Y4589D01*
X15800Y4639D02*X15900Y4739D01*
Y5009D02*Y4909D01*
X15500Y4959D02*X15900D01*
X15600Y4859D02*X15500Y4959D01*
X13000Y5939D02*X13350D01*
X13400Y5989D01*
Y6089D02*Y5989D01*
Y6089D02*X13350Y6139D01*
X13000D02*X13350D01*
X13050Y6259D02*X13000Y6309D01*
Y6459D02*Y6309D01*
Y6459D02*X13050Y6509D01*
X13150D01*
X13400Y6259D02*X13150Y6509D01*
X13400D02*Y6259D01*
X9900Y2539D02*X10100D01*
X10150Y2489D01*
Y2389D01*
X10100Y2339D02*X10150Y2389D01*
X9950Y2339D02*X10100D01*
X9950Y2539D02*Y2139D01*
Y2339D02*X10150Y2139D01*
X10270Y2489D02*X10320Y2539D01*
X10420D01*
X10470Y2489D01*
Y2189D01*
X10420Y2139D02*X10470Y2189D01*
X10320Y2139D02*X10420D01*
X10270Y2189D02*X10320Y2139D01*
Y2339D02*X10470D01*
X14600Y13169D02*X14750D01*
X14800Y13119D02*X14750Y13169D01*
X14800Y13119D02*Y12819D01*
X14750Y12769D01*
X14600D02*X14750D01*
X14329Y13169D02*X14429D01*
X14379D02*Y12769D01*
X14479Y12869D02*X14379Y12769D01*
X14209Y12819D02*X14159Y12769D01*
X14009D02*X14159D01*
X14009D02*X13959Y12819D01*
Y12919D02*Y12819D01*
X14209Y13169D02*X13959Y12919D01*
Y13169D02*X14209D01*
X11300Y13569D02*X11450D01*
X11500Y13519D02*X11450Y13569D01*
X11500Y13519D02*Y13219D01*
X11450Y13169D01*
X11300D02*X11450D01*
X11029Y13569D02*X11129D01*
X11079D02*Y13169D01*
X11179Y13269D02*X11079Y13169D01*
X10909Y13519D02*X10859Y13569D01*
X10909Y13519D02*Y13219D01*
X10859Y13169D01*
X10759D02*X10859D01*
X10759D02*X10709Y13219D01*
Y13519D02*Y13219D01*
X10759Y13569D02*X10709Y13519D01*
X10759Y13569D02*X10859D01*
X10909Y13469D02*X10709Y13269D01*
X7600Y7239D02*Y7039D01*
Y7239D02*X7650Y7289D01*
X7750D01*
X7800Y7239D02*X7750Y7289D01*
X7800Y7239D02*Y7089D01*
X7600D02*X8000D01*
X7800D02*X8000Y7289D01*
X7600Y7609D02*Y7409D01*
X7800D01*
X7750Y7459D01*
Y7559D02*Y7459D01*
Y7559D02*X7800Y7609D01*
X7950D01*
X8000Y7559D02*X7950Y7609D01*
X8000Y7559D02*Y7459D01*
X7950Y7409D02*X8000Y7459D01*
X11200Y9039D02*Y8689D01*
X11250Y8639D01*
X11350D01*
X11400Y8689D01*
Y9039D02*Y8689D01*
X11520Y8989D02*X11570Y9039D01*
X11670D01*
X11720Y8989D01*
Y8689D01*
X11670Y8639D02*X11720Y8689D01*
X11570Y8639D02*X11670D01*
X11520Y8689D02*X11570Y8639D01*
Y8839D02*X11720D01*
X8950Y9839D02*X9350D01*
Y9689D02*X9300Y9639D01*
X9000D02*X9300D01*
X8950Y9689D02*X9000Y9639D01*
X8950Y9889D02*Y9689D01*
X9350Y9889D02*Y9689D01*
X8950Y9469D02*Y9369D01*
Y9419D02*X9350D01*
X9250Y9519D02*X9350Y9419D01*
X8700Y7239D02*Y7039D01*
Y7239D02*X8750Y7289D01*
X8850D01*
X8900Y7239D02*X8850Y7289D01*
X8900Y7239D02*Y7089D01*
X8700D02*X9100D01*
X8900D02*X9100Y7289D01*
X8900Y7409D02*X8700Y7609D01*
X8900Y7659D02*Y7409D01*
X8700Y7609D02*X9100D01*
X7900Y4939D02*Y4789D01*
X7550D02*X7900D01*
X7500Y4839D02*X7550Y4789D01*
X7500Y4889D02*Y4839D01*
X7550Y4939D02*X7500Y4889D01*
Y4619D02*Y4519D01*
Y4569D02*X7900D01*
X7800Y4669D02*X7900Y4569D01*
X9300Y6239D02*Y6089D01*
X8950D02*X9300D01*
X8900Y6139D02*X8950Y6089D01*
X8900Y6189D02*Y6139D01*
X8950Y6239D02*X8900Y6189D01*
X9250Y5969D02*X9300Y5919D01*
Y5819D01*
X9250Y5769D01*
X8950D02*X9250D01*
X8900Y5819D02*X8950Y5769D01*
X8900Y5919D02*Y5819D01*
X8950Y5969D02*X8900Y5919D01*
X9100D02*Y5769D01*
X15600Y7689D02*Y7539D01*
X15650Y7739D02*X15600Y7689D01*
X15650Y7739D02*X15950D01*
X16000Y7689D01*
Y7539D01*
X15600Y7419D02*X15800Y7219D01*
X15950D01*
X16000Y7269D02*X15950Y7219D01*
X16000Y7369D02*Y7269D01*
X15950Y7419D02*X16000Y7369D01*
X15850Y7419D02*X15950D01*
X15850D02*X15800Y7369D01*
Y7219D01*
X1500Y8889D02*Y8739D01*
X1550Y8939D02*X1500Y8889D01*
X1550Y8939D02*X1850D01*
X1900Y8889D01*
Y8739D01*
X1550Y8619D02*X1850D01*
X1900Y8569D01*
Y8469D01*
X1850Y8419D01*
X1550D02*X1850D01*
X1500Y8469D02*X1550Y8419D01*
X1500Y8569D02*Y8469D01*
X1550Y8619D02*X1500Y8569D01*
Y8299D02*X1900D01*
X1850D02*X1900D01*
X1850D02*X1600Y8049D01*
X1500D02*X1900D01*
X1500Y7929D02*X1900D01*
X1850D02*X1900D01*
X1850D02*X1600Y7679D01*
X1500D02*X1900D01*
X1850Y7559D02*X1900Y7509D01*
Y7359D01*
X1850Y7309D01*
X1750D02*X1850D01*
X1500Y7559D02*X1750Y7309D01*
X1500Y7559D02*Y7309D01*
X8300Y3089D02*Y2939D01*
Y3089D02*X8650D01*
X8700Y3039D02*X8650Y3089D01*
X8700Y3039D02*Y2989D01*
X8650Y2939D02*X8700Y2989D01*
X8350Y3209D02*X8300Y3259D01*
Y3409D02*Y3259D01*
Y3409D02*X8350Y3459D01*
X8450D01*
X8700Y3209D02*X8450Y3459D01*
X8700D02*Y3209D01*
X13250Y3009D02*X13400D01*
X13200Y3059D02*X13250Y3009D01*
X13200Y3359D02*Y3059D01*
Y3359D02*X13250Y3409D01*
X13400D01*
X13520Y3009D02*X13770Y3259D01*
Y3409D02*Y3259D01*
X13520Y3409D02*X13770D01*
X30200Y1039D02*X30400D01*
X30200D02*X30150Y1089D01*
Y1189D02*Y1089D01*
X30200Y1239D02*X30150Y1189D01*
X30200Y1239D02*X30350D01*
Y1439D02*Y1039D01*
Y1239D02*X30150Y1439D01*
X30029D02*X29829Y1239D01*
Y1089D01*
X29879Y1039D02*X29829Y1089D01*
X29879Y1039D02*X29979D01*
X30029Y1089D02*X29979Y1039D01*
X30029Y1189D02*Y1089D01*
Y1189D02*X29979Y1239D01*
X29829D02*X29979D01*
X27700Y7769D02*X27850D01*
X27900Y7719D02*X27850Y7769D01*
X27900Y7719D02*Y7419D01*
X27850Y7369D01*
X27700D02*X27850D01*
X27579Y7719D02*X27529Y7769D01*
X27579Y7719D02*Y7619D01*
X27529Y7569D01*
X27429D02*X27529D01*
X27429D02*X27379Y7619D01*
Y7719D02*Y7619D01*
X27429Y7769D02*X27379Y7719D01*
X27429Y7769D02*X27529D01*
X27579Y7519D02*X27529Y7569D01*
X27579Y7519D02*Y7419D01*
X27529Y7369D01*
X27429D02*X27529D01*
X27429D02*X27379Y7419D01*
Y7519D02*Y7419D01*
X27429Y7569D02*X27379Y7519D01*
X30200Y2139D02*X30400D01*
X30200D02*X30150Y2189D01*
Y2289D02*Y2189D01*
X30200Y2339D02*X30150Y2289D01*
X30200Y2339D02*X30350D01*
Y2539D02*Y2139D01*
Y2339D02*X30150Y2539D01*
X30029Y2489D02*X29979Y2539D01*
X30029Y2489D02*Y2389D01*
X29979Y2339D01*
X29879D02*X29979D01*
X29879D02*X29829Y2389D01*
Y2489D02*Y2389D01*
X29879Y2539D02*X29829Y2489D01*
X29879Y2539D02*X29979D01*
X30029Y2289D02*X29979Y2339D01*
X30029Y2289D02*Y2189D01*
X29979Y2139D01*
X29879D02*X29979D01*
X29879D02*X29829Y2189D01*
Y2289D02*Y2189D01*
X29879Y2339D02*X29829Y2289D01*
X18300Y4339D02*Y4139D01*
Y4339D02*X18350Y4389D01*
X18450D01*
X18500Y4339D02*X18450Y4389D01*
X18500Y4339D02*Y4189D01*
X18300D02*X18700D01*
X18500D02*X18700Y4389D01*
X18350Y4509D02*X18300Y4559D01*
Y4709D02*Y4559D01*
Y4709D02*X18350Y4759D01*
X18450D01*
X18700Y4509D02*X18450Y4759D01*
X18700D02*Y4509D01*
X19100Y11889D02*Y11739D01*
X19150Y11939D02*X19100Y11889D01*
X19150Y11939D02*X19450D01*
X19500Y11889D01*
Y11739D01*
Y11619D02*Y11419D01*
X19300Y11619D02*X19500D01*
X19300D02*X19350Y11569D01*
Y11469D01*
X19300Y11419D01*
X19150D02*X19300D01*
X19100Y11469D02*X19150Y11419D01*
X19100Y11569D02*Y11469D01*
X19150Y11619D02*X19100Y11569D01*
X19400Y4339D02*Y4139D01*
Y4339D02*X19450Y4389D01*
X19550D01*
X19600Y4339D02*X19550Y4389D01*
X19600Y4339D02*Y4189D01*
X19400D02*X19800D01*
X19600D02*X19800Y4389D01*
Y4659D02*Y4559D01*
X19400Y4609D02*X19800D01*
X19500Y4509D02*X19400Y4609D01*
X22000Y4839D02*Y4639D01*
Y4839D02*X22050Y4889D01*
X22150D01*
X22200Y4839D02*X22150Y4889D01*
X22200Y4839D02*Y4689D01*
X22000D02*X22400D01*
X22200D02*X22400Y4889D01*
X22000Y5159D02*X22050Y5209D01*
X22000Y5159D02*Y5059D01*
X22050Y5009D02*X22000Y5059D01*
X22050Y5009D02*X22350D01*
X22400Y5059D01*
X22200Y5159D02*X22250Y5209D01*
X22200Y5159D02*Y5009D01*
X22400Y5159D02*Y5059D01*
Y5159D02*X22350Y5209D01*
X22250D02*X22350D01*
X25900Y5939D02*X26050D01*
X26100Y5889D02*X26050Y5939D01*
X26100Y5889D02*Y5589D01*
X26050Y5539D01*
X25900D02*X26050D01*
X25779Y5739D02*X25579Y5539D01*
X25529Y5739D02*X25779D01*
X25579Y5939D02*Y5539D01*
X24600Y2689D02*Y2389D01*
Y2689D02*X24650Y2739D01*
X24750D01*
X24800Y2689D01*
Y2389D01*
X24750Y2339D02*X24800Y2389D01*
X24650Y2339D02*X24750D01*
X24600Y2389D02*X24650Y2339D01*
X24700Y2439D02*X24800Y2339D01*
X24920Y2689D02*X24970Y2739D01*
X25120D01*
X25170Y2689D01*
Y2589D01*
X24920Y2339D02*X25170Y2589D01*
X24920Y2339D02*X25170D01*
X21400Y2689D02*Y2389D01*
Y2689D02*X21450Y2739D01*
X21550D01*
X21600Y2689D01*
Y2389D01*
X21550Y2339D02*X21600Y2389D01*
X21450Y2339D02*X21550D01*
X21400Y2389D02*X21450Y2339D01*
X21500Y2439D02*X21600Y2339D01*
X21720Y2689D02*X21770Y2739D01*
X21870D01*
X21920Y2689D01*
Y2389D01*
X21870Y2339D02*X21920Y2389D01*
X21770Y2339D02*X21870D01*
X21720Y2389D02*X21770Y2339D01*
Y2539D02*X21920D01*
X23300Y4539D02*Y4339D01*
Y4539D02*X23350Y4589D01*
X23450D01*
X23500Y4539D02*X23450Y4589D01*
X23500Y4539D02*Y4389D01*
X23300D02*X23700D01*
X23500D02*X23700Y4589D01*
Y4709D02*X23450Y4959D01*
X23300D02*X23450D01*
X23300D02*Y4709D01*
X22200Y14839D02*X22350D01*
X22400Y14789D02*X22350Y14839D01*
X22400Y14789D02*Y14489D01*
X22350Y14439D01*
X22200D02*X22350D01*
X22079Y14489D02*X22029Y14439D01*
X21929D02*X22029D01*
X21929D02*X21879Y14489D01*
Y14789D02*Y14489D01*
X21929Y14839D02*X21879Y14789D01*
X21929Y14839D02*X22029D01*
X22079Y14789D02*X22029Y14839D01*
X21879Y14639D02*X22029D01*
X25400Y14839D02*X25550D01*
X25600Y14789D02*X25550Y14839D01*
X25600Y14789D02*Y14489D01*
X25550Y14439D01*
X25400D02*X25550D01*
X25129Y14839D02*X25229D01*
X25179D02*Y14439D01*
X25279Y14539D02*X25179Y14439D01*
X32858Y10487D02*Y10262D01*
X32933Y10562D02*X32858Y10487D01*
X32933Y10562D02*X33383D01*
X33458Y10487D01*
Y10262D01*
X32933Y10081D02*X33383D01*
X33458Y10006D01*
Y9856D01*
X33383Y9781D01*
X32933D02*X33383D01*
X32858Y9856D02*X32933Y9781D01*
X32858Y10006D02*Y9856D01*
X32933Y10081D02*X32858Y10006D01*
Y9601D02*X33458D01*
X33383D02*X33458D01*
X33383D02*X33008Y9226D01*
X32858D02*X33458D01*
X32858Y9046D02*X33458D01*
X33383D02*X33458D01*
X33383D02*X33008Y8671D01*
X32858D02*X33458D01*
X32858Y8416D02*Y8266D01*
Y8341D02*X33458D01*
X33308Y8491D02*X33458Y8341D01*
X31500Y12039D02*Y11889D01*
X31450Y11839D02*X31500Y11889D01*
X31150Y11839D02*X31450D01*
X31150D02*X31100Y11889D01*
Y12039D02*Y11889D01*
X31150Y12159D02*X31100Y12209D01*
Y12359D02*Y12209D01*
Y12359D02*X31150Y12409D01*
X31250D01*
X31500Y12159D02*X31250Y12409D01*
X31500D02*Y12159D01*
X27100Y9689D02*Y9339D01*
Y9689D02*X27050Y9739D01*
X26950D02*X27050D01*
X26950D02*X26900Y9689D01*
Y9339D01*
X26629Y9739D02*X26729D01*
X26679D02*Y9339D01*
X26779Y9439D02*X26679Y9339D01*
M02*
