G04 start of page 9 for group -3984 idx -3984
G04 Title: (unknown), fab *
G04 Creator: pcb 20080202 *
G04 CreationDate: Mi 16 Sep 2009 19:53:06 GMT UTC *
G04 For: stettberger *
G04 Format: Gerber/RS-274X *
G04 PCB-Dimensions: 382677 150394 *
G04 PCB-Coordinate-Origin: lower left *
%MOIN*%
%FSLAX24Y24*%
%LNFAB*%
%ADD13C,0.0100*%
%ADD58C,0.0080*%
%ADD59C,0.0060*%
G54D58*X2600Y5439D02*Y4959D01*
Y5439D02*X3016Y5679D01*
X2600Y5439D02*X2184Y5679D01*
X2440Y5439D02*G75*G03X2760Y5439I160J0D01*G01*
G75*G03X2440Y5439I-160J0D01*G01*
X2280D02*G75*G03X2920Y5439I320J0D01*G01*
G75*G03X2280Y5439I-320J0D01*G01*
X2600Y11339D02*Y10859D01*
Y11339D02*X3016Y11579D01*
X2600Y11339D02*X2184Y11579D01*
X2440Y11339D02*G75*G03X2760Y11339I160J0D01*G01*
G75*G03X2440Y11339I-160J0D01*G01*
X2280D02*G75*G03X2920Y11339I320J0D01*G01*
G75*G03X2280Y11339I-320J0D01*G01*
X1500Y16164D02*Y15684D01*
Y16164D02*X1916Y16404D01*
X1500Y16164D02*X1084Y16404D01*
X1340Y16164D02*G75*G03X1660Y16164I160J0D01*G01*
G75*G03X1340Y16164I-160J0D01*G01*
X1180D02*G75*G03X1820Y16164I320J0D01*G01*
G75*G03X1180Y16164I-320J0D01*G01*
G54D59*X14000Y16389D02*Y15789D01*
Y16389D02*Y16314D01*
X14375Y15939D01*
Y16389D02*Y15789D01*
X14555Y16314D02*Y15864D01*
Y16314D02*X14630Y16389D01*
X14780D01*
X14855Y16314D01*
Y15864D01*
X14780Y15789D02*X14855Y15864D01*
X14630Y15789D02*X14780D01*
X14555Y15864D02*X14630Y15789D01*
X14000Y15464D02*X15035D01*
X9800Y16314D02*X9875Y16389D01*
X10100D01*
X10175Y16314D01*
Y16164D01*
X9800Y15789D02*X10175Y16164D01*
X9800Y15789D02*X10175D01*
X9800Y15464D02*X10355D01*
X4500Y15864D02*X4575Y15789D01*
X4500Y16314D02*Y15864D01*
Y16314D02*X4575Y16389D01*
X4725D01*
X4800Y16314D01*
Y15864D01*
X4725Y15789D02*X4800Y15864D01*
X4575Y15789D02*X4725D01*
X4500Y15939D02*X4800Y16239D01*
X4980Y15789D02*X5055D01*
X5310D02*X5460D01*
X5385Y16389D02*Y15789D01*
X5235Y16239D02*X5385Y16389D01*
X5640Y16314D02*X5715Y16389D01*
X5940D01*
X6015Y16314D01*
Y16164D01*
X5640Y15789D02*X6015Y16164D01*
X5640Y15789D02*X6015D01*
X6195Y15864D02*X6270Y15789D01*
X6195Y16014D02*Y15864D01*
Y16014D02*X6270Y16089D01*
X6420D01*
X6495Y16014D01*
Y15864D01*
X6420Y15789D02*X6495Y15864D01*
X6270Y15789D02*X6420D01*
X6195Y16164D02*X6270Y16089D01*
X6195Y16314D02*Y16164D01*
Y16314D02*X6270Y16389D01*
X6420D01*
X6495Y16314D01*
Y16164D01*
X6420Y16089D02*X6495Y16164D01*
X4500Y15464D02*X6675D01*
X34400Y3379D02*X34720D01*
X34400D02*Y3059D01*
X34720D01*
Y3379D02*Y3059D01*
X34240Y3539D02*X34880D01*
X34240D02*Y2899D01*
X34880D01*
Y3539D02*Y2899D01*
X34400Y13099D02*X34720D01*
X34400D02*Y12779D01*
X34720D01*
Y13099D02*Y12779D01*
X34240Y13259D02*X34880D01*
X34240D02*Y12619D01*
X34880D01*
Y13259D02*Y12619D01*
X1340Y17824D02*X1660D01*
X1340D02*Y17504D01*
X1660D01*
Y17824D02*Y17504D01*
X1180Y17984D02*X1820D01*
X1180D02*Y17344D01*
X1820D01*
Y17984D02*Y17344D01*
X13500Y17889D02*Y17814D01*
X13650Y17664D01*
X13800Y17814D01*
Y17889D02*Y17814D01*
X13650Y17664D02*Y17289D01*
X13980Y17589D02*X14205D01*
X13980Y17289D02*X14280D01*
X13980Y17889D02*Y17289D01*
Y17889D02*X14280D01*
X14760D02*X14835Y17814D01*
X14535Y17889D02*X14760D01*
X14460Y17814D02*X14535Y17889D01*
X14460Y17814D02*Y17664D01*
X14535Y17589D01*
X14760D01*
X14835Y17514D01*
Y17364D01*
X14760Y17289D02*X14835Y17364D01*
X14535Y17289D02*X14760D01*
X14460Y17364D02*X14535Y17289D01*
X13500Y16964D02*X15015D01*
X9800Y17814D02*X9875Y17889D01*
X10100D01*
X10175Y17814D01*
Y17664D01*
X9800Y17289D02*X10175Y17664D01*
X9800Y17289D02*X10175D01*
X9800Y16964D02*X10355D01*
X4500Y17364D02*X4575Y17289D01*
X4500Y17814D02*Y17364D01*
Y17814D02*X4575Y17889D01*
X4725D01*
X4800Y17814D01*
Y17364D01*
X4725Y17289D02*X4800Y17364D01*
X4575Y17289D02*X4725D01*
X4500Y17439D02*X4800Y17739D01*
X4980Y17289D02*X5055D01*
X5310D02*X5460D01*
X5385Y17889D02*Y17289D01*
X5235Y17739D02*X5385Y17889D01*
X5640Y17814D02*X5715Y17889D01*
X5940D01*
X6015Y17814D01*
Y17664D01*
X5640Y17289D02*X6015Y17664D01*
X5640Y17289D02*X6015D01*
X6195Y17889D02*X6495D01*
X6195D02*Y17589D01*
X6270Y17664D01*
X6420D01*
X6495Y17589D01*
Y17364D01*
X6420Y17289D02*X6495Y17364D01*
X6270Y17289D02*X6420D01*
X6195Y17364D02*X6270Y17289D01*
X4500Y16964D02*X6675D01*
X4120Y1439D02*G75*G03X4280Y1439I80J0D01*G01*
G75*G03X4120Y1439I-80J0D01*G01*
X3960D02*G75*G03X4440Y1439I240J0D01*G01*
G75*G03X3960Y1439I-240J0D01*G01*
X6120D02*G75*G03X6280Y1439I80J0D01*G01*
G75*G03X6120Y1439I-80J0D01*G01*
X5960D02*G75*G03X6440Y1439I240J0D01*G01*
G75*G03X5960Y1439I-240J0D01*G01*
X1420Y19164D02*G75*G03X1580Y19164I80J0D01*G01*
G75*G03X1420Y19164I-80J0D01*G01*
X1260D02*G75*G03X1740Y19164I240J0D01*G01*
G75*G03X1260Y19164I-240J0D01*G01*
X13500Y19389D02*Y19314D01*
X13650Y19164D01*
X13800Y19314D01*
Y19389D02*Y19314D01*
X13650Y19164D02*Y18789D01*
X13980Y19089D02*X14205D01*
X13980Y18789D02*X14280D01*
X13980Y19389D02*Y18789D01*
Y19389D02*X14280D01*
X14760D02*X14835Y19314D01*
X14535Y19389D02*X14760D01*
X14460Y19314D02*X14535Y19389D01*
X14460Y19314D02*Y19164D01*
X14535Y19089D01*
X14760D01*
X14835Y19014D01*
Y18864D01*
X14760Y18789D02*X14835Y18864D01*
X14535Y18789D02*X14760D01*
X14460Y18864D02*X14535Y18789D01*
X13500Y18464D02*X15015D01*
X9800Y19314D02*X9875Y19389D01*
X10100D01*
X10175Y19314D01*
Y19164D01*
X9800Y18789D02*X10175Y19164D01*
X9800Y18789D02*X10175D01*
X9800Y18464D02*X10355D01*
X4500Y18864D02*X4575Y18789D01*
X4500Y19314D02*Y18864D01*
Y19314D02*X4575Y19389D01*
X4725D01*
X4800Y19314D01*
Y18864D01*
X4725Y18789D02*X4800Y18864D01*
X4575Y18789D02*X4725D01*
X4500Y18939D02*X4800Y19239D01*
X4980Y18789D02*X5055D01*
X5235Y18864D02*X5310Y18789D01*
X5235Y19314D02*Y18864D01*
Y19314D02*X5310Y19389D01*
X5460D01*
X5535Y19314D01*
Y18864D01*
X5460Y18789D02*X5535Y18864D01*
X5310Y18789D02*X5460D01*
X5235Y18939D02*X5535Y19239D01*
X5715Y19389D02*X6015D01*
X5715D02*Y19089D01*
X5790Y19164D01*
X5940D01*
X6015Y19089D01*
Y18864D01*
X5940Y18789D02*X6015Y18864D01*
X5790Y18789D02*X5940D01*
X5715Y18864D02*X5790Y18789D01*
X6195D02*X6495Y19089D01*
Y19314D02*Y19089D01*
X6420Y19389D02*X6495Y19314D01*
X6270Y19389D02*X6420D01*
X6195Y19314D02*X6270Y19389D01*
X6195Y19314D02*Y19164D01*
X6270Y19089D01*
X6495D01*
X4500Y18464D02*X6675D01*
X21060Y1779D02*X21540Y1299D01*
X21060D02*X21540Y1779D01*
X21140Y1699D02*X21460D01*
X21140D02*Y1379D01*
X21460D01*
Y1699D02*Y1379D01*
X22060Y1779D02*X22540Y1299D01*
X22060D02*X22540Y1779D01*
X22140Y1699D02*X22460D01*
X22140D02*Y1379D01*
X22460D01*
Y1699D02*Y1379D01*
X23060Y1779D02*X23540Y1299D01*
X23060D02*X23540Y1779D01*
X23140Y1699D02*X23460D01*
X23140D02*Y1379D01*
X23460D01*
Y1699D02*Y1379D01*
X24260Y1779D02*X24740Y1299D01*
X24260D02*X24740Y1779D01*
X24340Y1699D02*X24660D01*
X24340D02*Y1379D01*
X24660D01*
Y1699D02*Y1379D01*
X25260Y1779D02*X25740Y1299D01*
X25260D02*X25740Y1779D01*
X25340Y1699D02*X25660D01*
X25340D02*Y1379D01*
X25660D01*
Y1699D02*Y1379D01*
X26260Y1779D02*X26740Y1299D01*
X26260D02*X26740Y1779D01*
X26340Y1699D02*X26660D01*
X26340D02*Y1379D01*
X26660D01*
Y1699D02*Y1379D01*
X16460Y4679D02*X16940Y4199D01*
X16460D02*X16940Y4679D01*
X16540Y4599D02*X16860D01*
X16540D02*Y4279D01*
X16860D01*
Y4599D02*Y4279D01*
X16460Y5679D02*X16940Y5199D01*
X16460D02*X16940Y5679D01*
X16540Y5599D02*X16860D01*
X16540D02*Y5279D01*
X16860D01*
Y5599D02*Y5279D01*
X16460Y6679D02*X16940Y6199D01*
X16460D02*X16940Y6679D01*
X16540Y6599D02*X16860D01*
X16540D02*Y6279D01*
X16860D01*
Y6599D02*Y6279D01*
X1260Y20904D02*X1740Y20424D01*
X1260D02*X1740Y20904D01*
X1340Y20824D02*X1660D01*
X1340D02*Y20504D01*
X1660D01*
Y20824D02*Y20504D01*
X13500Y20889D02*Y20814D01*
X13650Y20664D01*
X13800Y20814D01*
Y20889D02*Y20814D01*
X13650Y20664D02*Y20289D01*
X13980Y20589D02*X14205D01*
X13980Y20289D02*X14280D01*
X13980Y20889D02*Y20289D01*
Y20889D02*X14280D01*
X14760D02*X14835Y20814D01*
X14535Y20889D02*X14760D01*
X14460Y20814D02*X14535Y20889D01*
X14460Y20814D02*Y20664D01*
X14535Y20589D01*
X14760D01*
X14835Y20514D01*
Y20364D01*
X14760Y20289D02*X14835Y20364D01*
X14535Y20289D02*X14760D01*
X14460Y20364D02*X14535Y20289D01*
X13500Y19964D02*X15015D01*
X9800Y20289D02*X10100Y20589D01*
Y20814D02*Y20589D01*
X10025Y20889D02*X10100Y20814D01*
X9875Y20889D02*X10025D01*
X9800Y20814D02*X9875Y20889D01*
X9800Y20814D02*Y20664D01*
X9875Y20589D01*
X10100D01*
X9800Y19964D02*X10280D01*
X4500Y20364D02*X4575Y20289D01*
X4500Y20814D02*Y20364D01*
Y20814D02*X4575Y20889D01*
X4725D01*
X4800Y20814D01*
Y20364D01*
X4725Y20289D02*X4800Y20364D01*
X4575Y20289D02*X4725D01*
X4500Y20439D02*X4800Y20739D01*
X4980Y20289D02*X5055D01*
X5235Y20364D02*X5310Y20289D01*
X5235Y20814D02*Y20364D01*
Y20814D02*X5310Y20889D01*
X5460D01*
X5535Y20814D01*
Y20364D01*
X5460Y20289D02*X5535Y20364D01*
X5310Y20289D02*X5460D01*
X5235Y20439D02*X5535Y20739D01*
X5715Y20589D02*X6015Y20889D01*
X5715Y20589D02*X6090D01*
X6015Y20889D02*Y20289D01*
X6270Y20814D02*X6345Y20889D01*
X6570D01*
X6645Y20814D01*
Y20664D01*
X6270Y20289D02*X6645Y20664D01*
X6270Y20289D02*X6645D01*
X4500Y19964D02*X6825D01*
X12200Y10559D02*Y9919D01*
X11880Y10239D02*X12520D01*
X12040Y10399D02*X12360D01*
X12040D02*Y10079D01*
X12360D01*
Y10399D02*Y10079D01*
X13200Y10559D02*Y9919D01*
X12880Y10239D02*X13520D01*
X13040Y10399D02*X13360D01*
X13040D02*Y10079D01*
X13360D01*
Y10399D02*Y10079D01*
X14200Y10559D02*Y9919D01*
X13880Y10239D02*X14520D01*
X14040Y10399D02*X14360D01*
X14040D02*Y10079D01*
X14360D01*
Y10399D02*Y10079D01*
X1500Y22484D02*Y21844D01*
X1180Y22164D02*X1820D01*
X1340Y22324D02*X1660D01*
X1340D02*Y22004D01*
X1660D01*
Y22324D02*Y22004D01*
X13500Y22389D02*Y22314D01*
X13650Y22164D01*
X13800Y22314D01*
Y22389D02*Y22314D01*
X13650Y22164D02*Y21789D01*
X13980Y22089D02*X14205D01*
X13980Y21789D02*X14280D01*
X13980Y22389D02*Y21789D01*
Y22389D02*X14280D01*
X14760D02*X14835Y22314D01*
X14535Y22389D02*X14760D01*
X14460Y22314D02*X14535Y22389D01*
X14460Y22314D02*Y22164D01*
X14535Y22089D01*
X14760D01*
X14835Y22014D01*
Y21864D01*
X14760Y21789D02*X14835Y21864D01*
X14535Y21789D02*X14760D01*
X14460Y21864D02*X14535Y21789D01*
X13500Y21464D02*X15015D01*
X9800Y22314D02*X9875Y22389D01*
X10025D01*
X10100Y22314D01*
Y21864D01*
X10025Y21789D02*X10100Y21864D01*
X9875Y21789D02*X10025D01*
X9800Y21864D02*X9875Y21789D01*
Y22089D02*X10100D01*
X9800Y21464D02*X10280D01*
X4500Y21864D02*X4575Y21789D01*
X4500Y22314D02*Y21864D01*
Y22314D02*X4575Y22389D01*
X4725D01*
X4800Y22314D01*
Y21864D01*
X4725Y21789D02*X4800Y21864D01*
X4575Y21789D02*X4725D01*
X4500Y21939D02*X4800Y22239D01*
X4980Y21789D02*X5055D01*
X5235Y21864D02*X5310Y21789D01*
X5235Y22314D02*Y21864D01*
Y22314D02*X5310Y22389D01*
X5460D01*
X5535Y22314D01*
Y21864D01*
X5460Y21789D02*X5535Y21864D01*
X5310Y21789D02*X5460D01*
X5235Y21939D02*X5535Y22239D01*
X5715Y22089D02*X6015Y22389D01*
X5715Y22089D02*X6090D01*
X6015Y22389D02*Y21789D01*
X6270Y21864D02*X6345Y21789D01*
X6270Y22314D02*Y21864D01*
Y22314D02*X6345Y22389D01*
X6495D01*
X6570Y22314D01*
Y21864D01*
X6495Y21789D02*X6570Y21864D01*
X6345Y21789D02*X6495D01*
X6270Y21939D02*X6570Y22239D01*
X4500Y21464D02*X6750D01*
X10200Y5739D02*Y5419D01*
Y5739D02*X10477Y5899D01*
X10200Y5739D02*X9922Y5899D01*
X10040Y5739D02*G75*G03X10360Y5739I160J0D01*G01*
G75*G03X10040Y5739I-160J0D01*G01*
X10200Y4739D02*Y4419D01*
Y4739D02*X10477Y4899D01*
X10200Y4739D02*X9922Y4899D01*
X10040Y4739D02*G75*G03X10360Y4739I160J0D01*G01*
G75*G03X10040Y4739I-160J0D01*G01*
X7400Y3439D02*Y3119D01*
Y3439D02*X7677Y3599D01*
X7400Y3439D02*X7122Y3599D01*
X7240Y3439D02*G75*G03X7560Y3439I160J0D01*G01*
G75*G03X7240Y3439I-160J0D01*G01*
X7400Y4439D02*Y4119D01*
Y4439D02*X7677Y4599D01*
X7400Y4439D02*X7122Y4599D01*
X7240Y4439D02*G75*G03X7560Y4439I160J0D01*G01*
G75*G03X7240Y4439I-160J0D01*G01*
X17600Y10739D02*Y10419D01*
Y10739D02*X17877Y10899D01*
X17600Y10739D02*X17322Y10899D01*
X17440Y10739D02*G75*G03X17760Y10739I160J0D01*G01*
G75*G03X17440Y10739I-160J0D01*G01*
X17600Y8739D02*Y8419D01*
Y8739D02*X17877Y8899D01*
X17600Y8739D02*X17322Y8899D01*
X17440Y8739D02*G75*G03X17760Y8739I160J0D01*G01*
G75*G03X17440Y8739I-160J0D01*G01*
X8800Y4439D02*Y4119D01*
Y4439D02*X9077Y4599D01*
X8800Y4439D02*X8522Y4599D01*
X8640Y4439D02*G75*G03X8960Y4439I160J0D01*G01*
G75*G03X8640Y4439I-160J0D01*G01*
X8800Y3439D02*Y3119D01*
Y3439D02*X9077Y3599D01*
X8800Y3439D02*X8522Y3599D01*
X8640Y3439D02*G75*G03X8960Y3439I160J0D01*G01*
G75*G03X8640Y3439I-160J0D01*G01*
X10200Y11139D02*Y10819D01*
Y11139D02*X10477Y11299D01*
X10200Y11139D02*X9922Y11299D01*
X10040Y11139D02*G75*G03X10360Y11139I160J0D01*G01*
G75*G03X10040Y11139I-160J0D01*G01*
X10200Y8139D02*Y7819D01*
Y8139D02*X10477Y8299D01*
X10200Y8139D02*X9922Y8299D01*
X10040Y8139D02*G75*G03X10360Y8139I160J0D01*G01*
G75*G03X10040Y8139I-160J0D01*G01*
X1500Y23664D02*Y23344D01*
Y23664D02*X1777Y23824D01*
X1500Y23664D02*X1222Y23824D01*
X1340Y23664D02*G75*G03X1660Y23664I160J0D01*G01*
G75*G03X1340Y23664I-160J0D01*G01*
X13500Y23889D02*Y23814D01*
X13650Y23664D01*
X13800Y23814D01*
Y23889D02*Y23814D01*
X13650Y23664D02*Y23289D01*
X13980Y23589D02*X14205D01*
X13980Y23289D02*X14280D01*
X13980Y23889D02*Y23289D01*
Y23889D02*X14280D01*
X14760D02*X14835Y23814D01*
X14535Y23889D02*X14760D01*
X14460Y23814D02*X14535Y23889D01*
X14460Y23814D02*Y23664D01*
X14535Y23589D01*
X14760D01*
X14835Y23514D01*
Y23364D01*
X14760Y23289D02*X14835Y23364D01*
X14535Y23289D02*X14760D01*
X14460Y23364D02*X14535Y23289D01*
X13500Y22964D02*X15015D01*
X9875Y23289D02*X10025D01*
X9950Y23889D02*Y23289D01*
X9800Y23739D02*X9950Y23889D01*
X10205Y23364D02*X10280Y23289D01*
X10205Y23814D02*Y23364D01*
Y23814D02*X10280Y23889D01*
X10430D01*
X10505Y23814D01*
Y23364D01*
X10430Y23289D02*X10505Y23364D01*
X10280Y23289D02*X10430D01*
X10205Y23439D02*X10505Y23739D01*
X9800Y22964D02*X10685D01*
X4500Y23364D02*X4575Y23289D01*
X4500Y23814D02*Y23364D01*
Y23814D02*X4575Y23889D01*
X4725D01*
X4800Y23814D01*
Y23364D01*
X4725Y23289D02*X4800Y23364D01*
X4575Y23289D02*X4725D01*
X4500Y23439D02*X4800Y23739D01*
X4980Y23289D02*X5055D01*
X5235Y23364D02*X5310Y23289D01*
X5235Y23814D02*Y23364D01*
Y23814D02*X5310Y23889D01*
X5460D01*
X5535Y23814D01*
Y23364D01*
X5460Y23289D02*X5535Y23364D01*
X5310Y23289D02*X5460D01*
X5235Y23439D02*X5535Y23739D01*
X5715Y23814D02*X5790Y23889D01*
X5940D01*
X6015Y23814D01*
Y23364D01*
X5940Y23289D02*X6015Y23364D01*
X5790Y23289D02*X5940D01*
X5715Y23364D02*X5790Y23289D01*
Y23589D02*X6015D01*
X6195Y23289D02*X6495Y23589D01*
Y23814D02*Y23589D01*
X6420Y23889D02*X6495Y23814D01*
X6270Y23889D02*X6420D01*
X6195Y23814D02*X6270Y23889D01*
X6195Y23814D02*Y23664D01*
X6270Y23589D01*
X6495D01*
X4500Y22964D02*X6675D01*
X19340Y3099D02*X19660D01*
X19340D02*Y2779D01*
X19660D01*
Y3099D02*Y2779D01*
X19340Y7099D02*X19660D01*
X19340D02*Y6779D01*
X19660D01*
Y7099D02*Y6779D01*
X23440Y3099D02*X23760D01*
X23440D02*Y2779D01*
X23760D01*
Y3099D02*Y2779D01*
X23440Y7099D02*X23760D01*
X23440D02*Y6779D01*
X23760D01*
Y7099D02*Y6779D01*
X31440Y2399D02*X31760D01*
X31440D02*Y2079D01*
X31760D01*
Y2399D02*Y2079D01*
X27440Y2399D02*X27760D01*
X27440D02*Y2079D01*
X27760D01*
Y2399D02*Y2079D01*
X8540Y2599D02*X8860D01*
X8540D02*Y2279D01*
X8860D01*
Y2599D02*Y2279D01*
X12540Y2599D02*X12860D01*
X12540D02*Y2279D01*
X12860D01*
Y2599D02*Y2279D01*
X8640Y5999D02*X8960D01*
X8640D02*Y5679D01*
X8960D01*
Y5999D02*Y5679D01*
X8640Y9999D02*X8960D01*
X8640D02*Y9679D01*
X8960D01*
Y9999D02*Y9679D01*
X21940Y3199D02*X22260D01*
X21940D02*Y2879D01*
X22260D01*
Y3199D02*Y2879D01*
X21940Y7199D02*X22260D01*
X21940D02*Y6879D01*
X22260D01*
Y7199D02*Y6879D01*
X18240Y3099D02*X18560D01*
X18240D02*Y2779D01*
X18560D01*
Y3099D02*Y2779D01*
X18240Y7099D02*X18560D01*
X18240D02*Y6779D01*
X18560D01*
Y7099D02*Y6779D01*
X7540Y5999D02*X7860D01*
X7540D02*Y5679D01*
X7860D01*
Y5999D02*Y5679D01*
X7540Y9999D02*X7860D01*
X7540D02*Y9679D01*
X7860D01*
Y9999D02*Y9679D01*
X31440Y1299D02*X31760D01*
X31440D02*Y979D01*
X31760D01*
Y1299D02*Y979D01*
X27440Y1299D02*X27760D01*
X27440D02*Y979D01*
X27760D01*
Y1299D02*Y979D01*
X1340Y25324D02*X1660D01*
X1340D02*Y25004D01*
X1660D01*
Y25324D02*Y25004D01*
X13500Y25389D02*Y25314D01*
X13650Y25164D01*
X13800Y25314D01*
Y25389D02*Y25314D01*
X13650Y25164D02*Y24789D01*
X13980Y25089D02*X14205D01*
X13980Y24789D02*X14280D01*
X13980Y25389D02*Y24789D01*
Y25389D02*X14280D01*
X14760D02*X14835Y25314D01*
X14535Y25389D02*X14760D01*
X14460Y25314D02*X14535Y25389D01*
X14460Y25314D02*Y25164D01*
X14535Y25089D01*
X14760D01*
X14835Y25014D01*
Y24864D01*
X14760Y24789D02*X14835Y24864D01*
X14535Y24789D02*X14760D01*
X14460Y24864D02*X14535Y24789D01*
X13500Y24464D02*X15015D01*
X9875Y24789D02*X10025D01*
X9950Y25389D02*Y24789D01*
X9800Y25239D02*X9950Y25389D01*
X10205Y24864D02*X10280Y24789D01*
X10205Y25014D02*Y24864D01*
Y25014D02*X10280Y25089D01*
X10430D01*
X10505Y25014D01*
Y24864D01*
X10430Y24789D02*X10505Y24864D01*
X10280Y24789D02*X10430D01*
X10205Y25164D02*X10280Y25089D01*
X10205Y25314D02*Y25164D01*
Y25314D02*X10280Y25389D01*
X10430D01*
X10505Y25314D01*
Y25164D01*
X10430Y25089D02*X10505Y25164D01*
X9800Y24464D02*X10685D01*
X4500Y24864D02*X4575Y24789D01*
X4500Y25314D02*Y24864D01*
Y25314D02*X4575Y25389D01*
X4725D01*
X4800Y25314D01*
Y24864D01*
X4725Y24789D02*X4800Y24864D01*
X4575Y24789D02*X4725D01*
X4500Y24939D02*X4800Y25239D01*
X4980Y24789D02*X5055D01*
X5235Y24864D02*X5310Y24789D01*
X5235Y25314D02*Y24864D01*
Y25314D02*X5310Y25389D01*
X5460D01*
X5535Y25314D01*
Y24864D01*
X5460Y24789D02*X5535Y24864D01*
X5310Y24789D02*X5460D01*
X5235Y24939D02*X5535Y25239D01*
X5715Y25314D02*X5790Y25389D01*
X5940D01*
X6015Y25314D01*
Y24864D01*
X5940Y24789D02*X6015Y24864D01*
X5790Y24789D02*X5940D01*
X5715Y24864D02*X5790Y24789D01*
Y25089D02*X6015D01*
X6195Y24864D02*X6270Y24789D01*
X6195Y25014D02*Y24864D01*
Y25014D02*X6270Y25089D01*
X6420D01*
X6495Y25014D01*
Y24864D01*
X6420Y24789D02*X6495Y24864D01*
X6270Y24789D02*X6420D01*
X6195Y25164D02*X6270Y25089D01*
X6195Y25314D02*Y25164D01*
Y25314D02*X6270Y25389D01*
X6420D01*
X6495Y25314D01*
Y25164D01*
X6420Y25089D02*X6495Y25164D01*
X4500Y24464D02*X6675D01*
X3420Y8439D02*G75*G03X3580Y8439I80J0D01*G01*
G75*G03X3420Y8439I-80J0D01*G01*
X4420Y7239D02*G75*G03X4580Y7239I80J0D01*G01*
G75*G03X4420Y7239I-80J0D01*G01*
Y8039D02*G75*G03X4580Y8039I80J0D01*G01*
G75*G03X4420Y8039I-80J0D01*G01*
Y9639D02*G75*G03X4580Y9639I80J0D01*G01*
G75*G03X4420Y9639I-80J0D01*G01*
X3420Y9239D02*G75*G03X3580Y9239I80J0D01*G01*
G75*G03X3420Y9239I-80J0D01*G01*
X4420Y8839D02*G75*G03X4580Y8839I80J0D01*G01*
G75*G03X4420Y8839I-80J0D01*G01*
X3420Y7639D02*G75*G03X3580Y7639I80J0D01*G01*
G75*G03X3420Y7639I-80J0D01*G01*
Y6839D02*G75*G03X3580Y6839I80J0D01*G01*
G75*G03X3420Y6839I-80J0D01*G01*
X1420Y26664D02*G75*G03X1580Y26664I80J0D01*G01*
G75*G03X1420Y26664I-80J0D01*G01*
X13500Y26889D02*Y26814D01*
X13650Y26664D01*
X13800Y26814D01*
Y26889D02*Y26814D01*
X13650Y26664D02*Y26289D01*
X13980Y26589D02*X14205D01*
X13980Y26289D02*X14280D01*
X13980Y26889D02*Y26289D01*
Y26889D02*X14280D01*
X14760D02*X14835Y26814D01*
X14535Y26889D02*X14760D01*
X14460Y26814D02*X14535Y26889D01*
X14460Y26814D02*Y26664D01*
X14535Y26589D01*
X14760D01*
X14835Y26514D01*
Y26364D01*
X14760Y26289D02*X14835Y26364D01*
X14535Y26289D02*X14760D01*
X14460Y26364D02*X14535Y26289D01*
X13500Y25964D02*X15015D01*
X9800Y26364D02*X9875Y26289D01*
X9800Y26514D02*Y26364D01*
Y26514D02*X9875Y26589D01*
X10025D01*
X10100Y26514D01*
Y26364D01*
X10025Y26289D02*X10100Y26364D01*
X9875Y26289D02*X10025D01*
X9800Y26664D02*X9875Y26589D01*
X9800Y26814D02*Y26664D01*
Y26814D02*X9875Y26889D01*
X10025D01*
X10100Y26814D01*
Y26664D01*
X10025Y26589D02*X10100Y26664D01*
X9800Y25964D02*X10280D01*
X4500Y26364D02*X4575Y26289D01*
X4500Y26814D02*Y26364D01*
Y26814D02*X4575Y26889D01*
X4725D01*
X4800Y26814D01*
Y26364D01*
X4725Y26289D02*X4800Y26364D01*
X4575Y26289D02*X4725D01*
X4500Y26439D02*X4800Y26739D01*
X4980Y26289D02*X5055D01*
X5235Y26364D02*X5310Y26289D01*
X5235Y26814D02*Y26364D01*
Y26814D02*X5310Y26889D01*
X5460D01*
X5535Y26814D01*
Y26364D01*
X5460Y26289D02*X5535Y26364D01*
X5310Y26289D02*X5460D01*
X5235Y26439D02*X5535Y26739D01*
X5715Y26814D02*X5790Y26889D01*
X5940D01*
X6015Y26814D01*
Y26364D01*
X5940Y26289D02*X6015Y26364D01*
X5790Y26289D02*X5940D01*
X5715Y26364D02*X5790Y26289D01*
Y26589D02*X6015D01*
X6420Y26889D02*X6495Y26814D01*
X6270Y26889D02*X6420D01*
X6195Y26814D02*X6270Y26889D01*
X6195Y26814D02*Y26364D01*
X6270Y26289D01*
X6420Y26589D02*X6495Y26514D01*
X6195Y26589D02*X6420D01*
X6270Y26289D02*X6420D01*
X6495Y26364D01*
Y26514D02*Y26364D01*
X4500Y25964D02*X6675D01*
X33880Y10359D02*X34120Y10119D01*
X33880D02*X34120Y10359D01*
X33880Y9279D02*X34120Y9039D01*
X33880D02*X34120Y9279D01*
X33880Y8199D02*X34120Y7959D01*
X33880D02*X34120Y8199D01*
X33880Y7119D02*X34120Y6879D01*
X33880D02*X34120Y7119D01*
X33880Y6039D02*X34120Y5799D01*
X33880D02*X34120Y6039D01*
X35000Y9819D02*X35240Y9579D01*
X35000D02*X35240Y9819D01*
X35000Y8739D02*X35240Y8499D01*
X35000D02*X35240Y8739D01*
X35000Y7659D02*X35240Y7419D01*
X35000D02*X35240Y7659D01*
X35000Y6579D02*X35240Y6339D01*
X35000D02*X35240Y6579D01*
X8680Y4559D02*X8920Y4319D01*
X8680D02*X8920Y4559D01*
X8680Y5959D02*X8920Y5719D01*
X8680D02*X8920Y5959D01*
X16780Y12659D02*X17020Y12419D01*
X16780D02*X17020Y12659D01*
X16780Y14459D02*X17020Y14219D01*
X16780D02*X17020Y14459D01*
X14180Y3159D02*X14420Y2919D01*
X14180D02*X14420Y3159D01*
X14180Y1259D02*X14420Y1019D01*
X14180D02*X14420Y1259D01*
X1380Y28284D02*X1620Y28044D01*
X1380D02*X1620Y28284D01*
X13500Y28389D02*Y28314D01*
X13650Y28164D01*
X13800Y28314D01*
Y28389D02*Y28314D01*
X13650Y28164D02*Y27789D01*
X13980Y28089D02*X14205D01*
X13980Y27789D02*X14280D01*
X13980Y28389D02*Y27789D01*
Y28389D02*X14280D01*
X14760D02*X14835Y28314D01*
X14535Y28389D02*X14760D01*
X14460Y28314D02*X14535Y28389D01*
X14460Y28314D02*Y28164D01*
X14535Y28089D01*
X14760D01*
X14835Y28014D01*
Y27864D01*
X14760Y27789D02*X14835Y27864D01*
X14535Y27789D02*X14760D01*
X14460Y27864D02*X14535Y27789D01*
X13500Y27464D02*X15015D01*
X9875Y27789D02*X10025D01*
X9950Y28389D02*Y27789D01*
X9800Y28239D02*X9950Y28389D01*
X10205D02*X10505D01*
X10205D02*Y28089D01*
X10280Y28164D01*
X10430D01*
X10505Y28089D01*
Y27864D01*
X10430Y27789D02*X10505Y27864D01*
X10280Y27789D02*X10430D01*
X10205Y27864D02*X10280Y27789D01*
X9800Y27464D02*X10685D01*
X4500Y27864D02*X4575Y27789D01*
X4500Y28314D02*Y27864D01*
Y28314D02*X4575Y28389D01*
X4725D01*
X4800Y28314D01*
Y27864D01*
X4725Y27789D02*X4800Y27864D01*
X4575Y27789D02*X4725D01*
X4500Y27939D02*X4800Y28239D01*
X4980Y27789D02*X5055D01*
X5235Y27864D02*X5310Y27789D01*
X5235Y28314D02*Y27864D01*
Y28314D02*X5310Y28389D01*
X5460D01*
X5535Y28314D01*
Y27864D01*
X5460Y27789D02*X5535Y27864D01*
X5310Y27789D02*X5460D01*
X5235Y27939D02*X5535Y28239D01*
X5715Y28314D02*X5790Y28389D01*
X5940D01*
X6015Y28314D01*
Y27864D01*
X5940Y27789D02*X6015Y27864D01*
X5790Y27789D02*X5940D01*
X5715Y27864D02*X5790Y27789D01*
Y28089D02*X6015D01*
X6195Y28389D02*X6495D01*
X6195D02*Y28089D01*
X6270Y28164D01*
X6420D01*
X6495Y28089D01*
Y27864D01*
X6420Y27789D02*X6495Y27864D01*
X6270Y27789D02*X6420D01*
X6195Y27864D02*X6270Y27789D01*
X4500Y27464D02*X6675D01*
X12200Y12699D02*Y12379D01*
X12040Y12539D02*X12360D01*
X10200Y12699D02*Y12379D01*
X10040Y12539D02*X10360D01*
X31500Y5699D02*Y5379D01*
X31340Y5539D02*X31660D01*
X30500Y5699D02*Y5379D01*
X30340Y5539D02*X30660D01*
X30000Y9999D02*Y9679D01*
X29840Y9839D02*X30160D01*
X30000Y10999D02*Y10679D01*
X29840Y10839D02*X30160D01*
X27600Y13499D02*Y13179D01*
X27440Y13339D02*X27760D01*
X26600Y13499D02*Y13179D01*
X26440Y13339D02*X26760D01*
X28100Y4599D02*Y4279D01*
X27940Y4439D02*X28260D01*
X27100Y4599D02*Y4279D01*
X26940Y4439D02*X27260D01*
X20600Y14099D02*Y13779D01*
X20440Y13939D02*X20760D01*
X20600Y13099D02*Y12779D01*
X20440Y12939D02*X20760D01*
X24400Y13499D02*Y13179D01*
X24240Y13339D02*X24560D01*
X23400Y13499D02*Y13179D01*
X23240Y13339D02*X23560D01*
X12500Y4199D02*Y3879D01*
X12340Y4039D02*X12660D01*
X14500Y4199D02*Y3879D01*
X14340Y4039D02*X14660D01*
X15500Y12299D02*Y11979D01*
X15340Y12139D02*X15660D01*
X13500Y12299D02*Y11979D01*
X13340Y12139D02*X13660D01*
X31500Y3899D02*Y3579D01*
X31340Y3739D02*X31660D01*
X30500Y3899D02*Y3579D01*
X30340Y3739D02*X30660D01*
X28600Y6899D02*Y6579D01*
X28440Y6739D02*X28760D01*
X26600Y6899D02*Y6579D01*
X26440Y6739D02*X26760D01*
X1500Y29824D02*Y29504D01*
X1340Y29664D02*X1660D01*
X13500Y29889D02*Y29814D01*
X13650Y29664D01*
X13800Y29814D01*
Y29889D02*Y29814D01*
X13650Y29664D02*Y29289D01*
X13980Y29589D02*X14205D01*
X13980Y29289D02*X14280D01*
X13980Y29889D02*Y29289D01*
Y29889D02*X14280D01*
X14760D02*X14835Y29814D01*
X14535Y29889D02*X14760D01*
X14460Y29814D02*X14535Y29889D01*
X14460Y29814D02*Y29664D01*
X14535Y29589D01*
X14760D01*
X14835Y29514D01*
Y29364D01*
X14760Y29289D02*X14835Y29364D01*
X14535Y29289D02*X14760D01*
X14460Y29364D02*X14535Y29289D01*
X13500Y28964D02*X15015D01*
X9800Y29814D02*X9875Y29889D01*
X10100D01*
X10175Y29814D01*
Y29664D01*
X9800Y29289D02*X10175Y29664D01*
X9800Y29289D02*X10175D01*
X10355Y29814D02*X10430Y29889D01*
X10655D01*
X10730Y29814D01*
Y29664D01*
X10355Y29289D02*X10730Y29664D01*
X10355Y29289D02*X10730D01*
X9800Y28964D02*X10910D01*
X4500Y29364D02*X4575Y29289D01*
X4500Y29814D02*Y29364D01*
Y29814D02*X4575Y29889D01*
X4725D01*
X4800Y29814D01*
Y29364D01*
X4725Y29289D02*X4800Y29364D01*
X4575Y29289D02*X4725D01*
X4500Y29439D02*X4800Y29739D01*
X4980Y29289D02*X5055D01*
X5235Y29364D02*X5310Y29289D01*
X5235Y29814D02*Y29364D01*
Y29814D02*X5310Y29889D01*
X5460D01*
X5535Y29814D01*
Y29364D01*
X5460Y29289D02*X5535Y29364D01*
X5310Y29289D02*X5460D01*
X5235Y29439D02*X5535Y29739D01*
X5715Y29814D02*X5790Y29889D01*
X5940D01*
X6015Y29814D01*
Y29364D01*
X5940Y29289D02*X6015Y29364D01*
X5790Y29289D02*X5940D01*
X5715Y29364D02*X5790Y29289D01*
Y29589D02*X6015D01*
X6195Y29814D02*X6270Y29889D01*
X6495D01*
X6570Y29814D01*
Y29664D01*
X6195Y29289D02*X6570Y29664D01*
X6195Y29289D02*X6570D01*
X4500Y28964D02*X6750D01*
X27600Y10939D02*Y10779D01*
Y10939D02*X27738Y11019D01*
X27600Y10939D02*X27461Y11019D01*
X26600Y10939D02*Y10779D01*
Y10939D02*X26738Y11019D01*
X26600Y10939D02*X26461Y11019D01*
X25600Y10939D02*Y10779D01*
Y10939D02*X25738Y11019D01*
X25600Y10939D02*X25461Y11019D01*
X24600Y10939D02*Y10779D01*
Y10939D02*X24738Y11019D01*
X24600Y10939D02*X24461Y11019D01*
X23600Y10939D02*Y10779D01*
Y10939D02*X23738Y11019D01*
X23600Y10939D02*X23461Y11019D01*
X22600Y10939D02*Y10779D01*
Y10939D02*X22738Y11019D01*
X22600Y10939D02*X22461Y11019D01*
X21600Y10939D02*Y10779D01*
Y10939D02*X21738Y11019D01*
X21600Y10939D02*X21461Y11019D01*
X20600Y10939D02*Y10779D01*
Y10939D02*X20738Y11019D01*
X20600Y10939D02*X20461Y11019D01*
X20600Y7939D02*Y7779D01*
Y7939D02*X20738Y8019D01*
X20600Y7939D02*X20461Y8019D01*
X21600Y7939D02*Y7779D01*
Y7939D02*X21738Y8019D01*
X21600Y7939D02*X21461Y8019D01*
X22600Y7939D02*Y7779D01*
Y7939D02*X22738Y8019D01*
X22600Y7939D02*X22461Y8019D01*
X23600Y7939D02*Y7779D01*
Y7939D02*X23738Y8019D01*
X23600Y7939D02*X23461Y8019D01*
X24600Y7939D02*Y7779D01*
Y7939D02*X24738Y8019D01*
X24600Y7939D02*X24461Y8019D01*
X25600Y7939D02*Y7779D01*
Y7939D02*X25738Y8019D01*
X25600Y7939D02*X25461Y8019D01*
X26600Y7939D02*Y7779D01*
Y7939D02*X26738Y8019D01*
X26600Y7939D02*X26461Y8019D01*
X27600Y7939D02*Y7779D01*
Y7939D02*X27738Y8019D01*
X27600Y7939D02*X27461Y8019D01*
X14600Y5439D02*Y5279D01*
Y5439D02*X14738Y5519D01*
X14600Y5439D02*X14461Y5519D01*
X14600Y6439D02*Y6279D01*
Y6439D02*X14738Y6519D01*
X14600Y6439D02*X14461Y6519D01*
X14600Y7439D02*Y7279D01*
Y7439D02*X14738Y7519D01*
X14600Y7439D02*X14461Y7519D01*
X14600Y8439D02*Y8279D01*
Y8439D02*X14738Y8519D01*
X14600Y8439D02*X14461Y8519D01*
X11600Y8439D02*Y8279D01*
Y8439D02*X11738Y8519D01*
X11600Y8439D02*X11461Y8519D01*
X11600Y7439D02*Y7279D01*
Y7439D02*X11738Y7519D01*
X11600Y7439D02*X11461Y7519D01*
X11600Y6439D02*Y6279D01*
Y6439D02*X11738Y6519D01*
X11600Y6439D02*X11461Y6519D01*
X11600Y5439D02*Y5279D01*
Y5439D02*X11738Y5519D01*
X11600Y5439D02*X11461Y5519D01*
X1500Y31164D02*Y31004D01*
Y31164D02*X1638Y31244D01*
X1500Y31164D02*X1361Y31244D01*
X13500Y31389D02*Y31314D01*
X13650Y31164D01*
X13800Y31314D01*
Y31389D02*Y31314D01*
X13650Y31164D02*Y30789D01*
X13980Y31089D02*X14205D01*
X13980Y30789D02*X14280D01*
X13980Y31389D02*Y30789D01*
Y31389D02*X14280D01*
X14760D02*X14835Y31314D01*
X14535Y31389D02*X14760D01*
X14460Y31314D02*X14535Y31389D01*
X14460Y31314D02*Y31164D01*
X14535Y31089D01*
X14760D01*
X14835Y31014D01*
Y30864D01*
X14760Y30789D02*X14835Y30864D01*
X14535Y30789D02*X14760D01*
X14460Y30864D02*X14535Y30789D01*
X13500Y30464D02*X15015D01*
X9800Y31314D02*X9875Y31389D01*
X10100D01*
X10175Y31314D01*
Y31164D01*
X9800Y30789D02*X10175Y31164D01*
X9800Y30789D02*X10175D01*
X10355Y31089D02*X10655Y31389D01*
X10355Y31089D02*X10730D01*
X10655Y31389D02*Y30789D01*
X9800Y30464D02*X10910D01*
X4500Y30864D02*X4575Y30789D01*
X4500Y31314D02*Y30864D01*
Y31314D02*X4575Y31389D01*
X4725D01*
X4800Y31314D01*
Y30864D01*
X4725Y30789D02*X4800Y30864D01*
X4575Y30789D02*X4725D01*
X4500Y30939D02*X4800Y31239D01*
X4980Y30789D02*X5055D01*
X5235Y30864D02*X5310Y30789D01*
X5235Y31314D02*Y30864D01*
Y31314D02*X5310Y31389D01*
X5460D01*
X5535Y31314D01*
Y30864D01*
X5460Y30789D02*X5535Y30864D01*
X5310Y30789D02*X5460D01*
X5235Y30939D02*X5535Y31239D01*
X5715Y31314D02*X5790Y31389D01*
X6015D01*
X6090Y31314D01*
Y31164D01*
X5715Y30789D02*X6090Y31164D01*
X5715Y30789D02*X6090D01*
X6270Y30864D02*X6345Y30789D01*
X6270Y31014D02*Y30864D01*
Y31014D02*X6345Y31089D01*
X6495D01*
X6570Y31014D01*
Y30864D01*
X6495Y30789D02*X6570Y30864D01*
X6345Y30789D02*X6495D01*
X6270Y31164D02*X6345Y31089D01*
X6270Y31314D02*Y31164D01*
Y31314D02*X6345Y31389D01*
X6495D01*
X6570Y31314D01*
Y31164D01*
X6495Y31089D02*X6570Y31164D01*
X4500Y30464D02*X6750D01*
X300Y32889D02*X375Y32814D01*
X75Y32889D02*X300D01*
X0Y32814D02*X75Y32889D01*
X0Y32814D02*Y32664D01*
X75Y32589D01*
X300D01*
X375Y32514D01*
Y32364D01*
X300Y32289D02*X375Y32364D01*
X75Y32289D02*X300D01*
X0Y32364D02*X75Y32289D01*
X555Y32589D02*Y32364D01*
X630Y32289D01*
X855Y32589D02*Y32139D01*
X780Y32064D02*X855Y32139D01*
X630Y32064D02*X780D01*
X555Y32139D02*X630Y32064D01*
Y32289D02*X780D01*
X855Y32364D01*
X1110Y32514D02*Y32289D01*
Y32514D02*X1185Y32589D01*
X1260D01*
X1335Y32514D01*
Y32289D01*
Y32514D02*X1410Y32589D01*
X1485D01*
X1560Y32514D01*
Y32289D01*
X1035Y32589D02*X1110Y32514D01*
X1740Y32889D02*Y32289D01*
Y32364D02*X1815Y32289D01*
X1965D01*
X2040Y32364D01*
Y32514D02*Y32364D01*
X1965Y32589D02*X2040Y32514D01*
X1815Y32589D02*X1965D01*
X1740Y32514D02*X1815Y32589D01*
X2220Y32514D02*Y32364D01*
Y32514D02*X2295Y32589D01*
X2445D01*
X2520Y32514D01*
Y32364D01*
X2445Y32289D02*X2520Y32364D01*
X2295Y32289D02*X2445D01*
X2220Y32364D02*X2295Y32289D01*
X2700Y32889D02*Y32364D01*
X2775Y32289D01*
X4175Y32889D02*Y32289D01*
X4400Y32889D02*X4475Y32814D01*
Y32364D01*
X4400Y32289D02*X4475Y32364D01*
X4100Y32289D02*X4400D01*
X4100Y32889D02*X4400D01*
X4655Y32739D02*Y32664D01*
Y32514D02*Y32289D01*
X5030Y32589D02*X5105Y32514D01*
X4880Y32589D02*X5030D01*
X4805Y32514D02*X4880Y32589D01*
X4805Y32514D02*Y32364D01*
X4880Y32289D01*
X5105Y32589D02*Y32364D01*
X5180Y32289D01*
X4880D02*X5030D01*
X5105Y32364D01*
X5435Y32514D02*Y32289D01*
Y32514D02*X5510Y32589D01*
X5585D01*
X5660Y32514D01*
Y32289D01*
Y32514D02*X5735Y32589D01*
X5810D01*
X5885Y32514D01*
Y32289D01*
X5360Y32589D02*X5435Y32514D01*
X6065Y32289D02*X6140D01*
X6590Y32364D02*X6665Y32289D01*
X6590Y32814D02*X6665Y32889D01*
X6590Y32814D02*Y32364D01*
X6845Y32889D02*X6995D01*
X6920D02*Y32289D01*
X6845D02*X6995D01*
X7251Y32514D02*Y32289D01*
Y32514D02*X7326Y32589D01*
X7401D01*
X7476Y32514D01*
Y32289D01*
X7176Y32589D02*X7251Y32514D01*
X7731Y32589D02*X7956D01*
X7656Y32514D02*X7731Y32589D01*
X7656Y32514D02*Y32364D01*
X7731Y32289D01*
X7956D01*
X8136Y32889D02*Y32289D01*
Y32514D02*X8211Y32589D01*
X8361D01*
X8436Y32514D01*
Y32289D01*
X8616Y32889D02*X8691Y32814D01*
Y32364D01*
X8616Y32289D02*X8691Y32364D01*
X9575Y32289D02*X9800D01*
X9500Y32364D02*X9575Y32289D01*
X9500Y32814D02*Y32364D01*
Y32814D02*X9575Y32889D01*
X9800D01*
X9980Y32514D02*Y32364D01*
Y32514D02*X10055Y32589D01*
X10205D01*
X10280Y32514D01*
Y32364D01*
X10205Y32289D02*X10280Y32364D01*
X10055Y32289D02*X10205D01*
X9980Y32364D02*X10055Y32289D01*
X10460Y32589D02*Y32364D01*
X10535Y32289D01*
X10685D01*
X10760Y32364D01*
Y32589D02*Y32364D01*
X11015Y32514D02*Y32289D01*
Y32514D02*X11090Y32589D01*
X11165D01*
X11240Y32514D01*
Y32289D01*
X10940Y32589D02*X11015Y32514D01*
X11495Y32889D02*Y32364D01*
X11570Y32289D01*
X11420Y32664D02*X11570D01*
X13075Y32889D02*Y32289D01*
X13000Y32889D02*X13300D01*
X13375Y32814D01*
Y32664D01*
X13300Y32589D02*X13375Y32664D01*
X13075Y32589D02*X13300D01*
X13555Y32889D02*Y32364D01*
X13630Y32289D01*
X14005Y32589D02*X14080Y32514D01*
X13855Y32589D02*X14005D01*
X13780Y32514D02*X13855Y32589D01*
X13780Y32514D02*Y32364D01*
X13855Y32289D01*
X14080Y32589D02*Y32364D01*
X14155Y32289D01*
X13855D02*X14005D01*
X14080Y32364D01*
X14410Y32889D02*Y32364D01*
X14485Y32289D01*
X14335Y32664D02*X14485D01*
X14710Y32289D02*X14935D01*
X14635Y32364D02*X14710Y32289D01*
X14635Y32514D02*Y32364D01*
Y32514D02*X14710Y32589D01*
X14860D01*
X14935Y32514D01*
X14635Y32439D02*X14935D01*
Y32514D02*Y32439D01*
X15415Y32889D02*Y32289D01*
X15340D02*X15415Y32364D01*
X15190Y32289D02*X15340D01*
X15115Y32364D02*X15190Y32289D01*
X15115Y32514D02*Y32364D01*
Y32514D02*X15190Y32589D01*
X15340D01*
X15415Y32514D01*
X15745Y32589D02*Y32514D01*
Y32364D02*Y32289D01*
X15595Y32814D02*Y32739D01*
Y32814D02*X15670Y32889D01*
X15820D01*
X15895Y32814D01*
Y32739D01*
X15745Y32589D02*X15895Y32739D01*
X0Y34389D02*X300D01*
X150D02*Y33789D01*
X480Y34389D02*Y33789D01*
Y34014D02*X555Y34089D01*
X705D01*
X780Y34014D01*
Y33789D01*
X1035D02*X1260D01*
X960Y33864D02*X1035Y33789D01*
X960Y34014D02*Y33864D01*
Y34014D02*X1035Y34089D01*
X1185D01*
X1260Y34014D01*
X960Y33939D02*X1260D01*
Y34014D02*Y33939D01*
X1515Y34014D02*Y33789D01*
Y34014D02*X1590Y34089D01*
X1740D01*
X1440D02*X1515Y34014D01*
X1995Y33789D02*X2220D01*
X1920Y33864D02*X1995Y33789D01*
X1920Y34014D02*Y33864D01*
Y34014D02*X1995Y34089D01*
X2145D01*
X2220Y34014D01*
X1920Y33939D02*X2220D01*
Y34014D02*Y33939D01*
X2895Y34089D02*X2970Y34014D01*
X2745Y34089D02*X2895D01*
X2670Y34014D02*X2745Y34089D01*
X2670Y34014D02*Y33864D01*
X2745Y33789D01*
X2970Y34089D02*Y33864D01*
X3045Y33789D01*
X2745D02*X2895D01*
X2970Y33864D01*
X3300Y34014D02*Y33789D01*
Y34014D02*X3375Y34089D01*
X3525D01*
X3225D02*X3300Y34014D01*
X3781Y33789D02*X4006D01*
X3706Y33864D02*X3781Y33789D01*
X3706Y34014D02*Y33864D01*
Y34014D02*X3781Y34089D01*
X3931D01*
X4006Y34014D01*
X3706Y33939D02*X4006D01*
Y34014D02*Y33939D01*
X4531Y33789D02*X4681D01*
X4606Y34389D02*Y33789D01*
X4456Y34239D02*X4606Y34389D01*
X4936Y33789D02*X5086D01*
X5011Y34389D02*Y33789D01*
X4861Y34239D02*X5011Y34389D01*
X5836D02*Y33789D01*
X5761D02*X5836Y33864D01*
X5611Y33789D02*X5761D01*
X5536Y33864D02*X5611Y33789D01*
X5536Y34014D02*Y33864D01*
Y34014D02*X5611Y34089D01*
X5761D01*
X5836Y34014D01*
X6016Y34239D02*Y34164D01*
Y34014D02*Y33789D01*
X6241Y34314D02*Y33789D01*
Y34314D02*X6316Y34389D01*
X6391D01*
X6166Y34089D02*X6316D01*
X6616Y34314D02*Y33789D01*
Y34314D02*X6691Y34389D01*
X6766D01*
X6541Y34089D02*X6691D01*
X6992Y33789D02*X7217D01*
X6917Y33864D02*X6992Y33789D01*
X6917Y34014D02*Y33864D01*
Y34014D02*X6992Y34089D01*
X7142D01*
X7217Y34014D01*
X6917Y33939D02*X7217D01*
Y34014D02*Y33939D01*
X7472Y34014D02*Y33789D01*
Y34014D02*X7547Y34089D01*
X7697D01*
X7397D02*X7472Y34014D01*
X7952Y33789D02*X8177D01*
X7877Y33864D02*X7952Y33789D01*
X7877Y34014D02*Y33864D01*
Y34014D02*X7952Y34089D01*
X8102D01*
X8177Y34014D01*
X7877Y33939D02*X8177D01*
Y34014D02*Y33939D01*
X8432Y34014D02*Y33789D01*
Y34014D02*X8507Y34089D01*
X8582D01*
X8657Y34014D01*
Y33789D01*
X8357Y34089D02*X8432Y34014D01*
X8912Y34389D02*Y33864D01*
X8987Y33789D01*
X8837Y34164D02*X8987D01*
X9707Y34389D02*Y33789D01*
X9632D02*X9707Y33864D01*
X9482Y33789D02*X9632D01*
X9407Y33864D02*X9482Y33789D01*
X9407Y34014D02*Y33864D01*
Y34014D02*X9482Y34089D01*
X9632D01*
X9707Y34014D01*
X9963D02*Y33789D01*
Y34014D02*X10038Y34089D01*
X10188D01*
X9888D02*X9963Y34014D01*
X10368Y34239D02*Y34164D01*
Y34014D02*Y33789D01*
X10518Y34389D02*Y33864D01*
X10593Y33789D01*
X10743Y34389D02*Y33864D01*
X10818Y33789D01*
X11313D02*X11538D01*
X11613Y33864D01*
X11538Y33939D02*X11613Y33864D01*
X11313Y33939D02*X11538D01*
X11238Y34014D02*X11313Y33939D01*
X11238Y34014D02*X11313Y34089D01*
X11538D01*
X11613Y34014D01*
X11238Y33864D02*X11313Y33789D01*
X11793Y34239D02*Y34164D01*
Y34014D02*Y33789D01*
X11943Y34089D02*X12243D01*
X11943Y33789D02*X12243Y34089D01*
X11943Y33789D02*X12243D01*
X12499D02*X12724D01*
X12424Y33864D02*X12499Y33789D01*
X12424Y34014D02*Y33864D01*
Y34014D02*X12499Y34089D01*
X12649D01*
X12724Y34014D01*
X12424Y33939D02*X12724D01*
Y34014D02*Y33939D01*
X12979Y33789D02*X13204D01*
X13279Y33864D01*
X13204Y33939D02*X13279Y33864D01*
X12979Y33939D02*X13204D01*
X12904Y34014D02*X12979Y33939D01*
X12904Y34014D02*X12979Y34089D01*
X13204D01*
X13279Y34014D01*
X12904Y33864D02*X12979Y33789D01*
X13729Y34089D02*Y33864D01*
X13804Y33789D01*
X13954D01*
X14029Y33864D01*
Y34089D02*Y33864D01*
X14284Y33789D02*X14509D01*
X14584Y33864D01*
X14509Y33939D02*X14584Y33864D01*
X14284Y33939D02*X14509D01*
X14209Y34014D02*X14284Y33939D01*
X14209Y34014D02*X14284Y34089D01*
X14509D01*
X14584Y34014D01*
X14209Y33864D02*X14284Y33789D01*
X14839D02*X15064D01*
X14764Y33864D02*X14839Y33789D01*
X14764Y34014D02*Y33864D01*
Y34014D02*X14839Y34089D01*
X14989D01*
X15064Y34014D01*
X14764Y33939D02*X15064D01*
Y34014D02*Y33939D01*
X15544Y34389D02*Y33789D01*
X15469D02*X15544Y33864D01*
X15319Y33789D02*X15469D01*
X15244Y33864D02*X15319Y33789D01*
X15244Y34014D02*Y33864D01*
Y34014D02*X15319Y34089D01*
X15469D01*
X15544Y34014D01*
X15994Y34239D02*Y34164D01*
Y34014D02*Y33789D01*
X16220Y34014D02*Y33789D01*
Y34014D02*X16295Y34089D01*
X16370D01*
X16445Y34014D01*
Y33789D01*
X16145Y34089D02*X16220Y34014D01*
X16970Y34389D02*Y33864D01*
X17045Y33789D01*
X16895Y34164D02*X17045D01*
X17195Y34389D02*Y33789D01*
Y34014D02*X17270Y34089D01*
X17420D01*
X17495Y34014D01*
Y33789D01*
X17675Y34239D02*Y34164D01*
Y34014D02*Y33789D01*
X17900D02*X18125D01*
X18200Y33864D01*
X18125Y33939D02*X18200Y33864D01*
X17900Y33939D02*X18125D01*
X17825Y34014D02*X17900Y33939D01*
X17825Y34014D02*X17900Y34089D01*
X18125D01*
X18200Y34014D01*
X17825Y33864D02*X17900Y33789D01*
X18650Y34389D02*Y33864D01*
X18725Y33789D01*
X19101Y34089D02*X19176Y34014D01*
X18951Y34089D02*X19101D01*
X18876Y34014D02*X18951Y34089D01*
X18876Y34014D02*Y33864D01*
X18951Y33789D01*
X19176Y34089D02*Y33864D01*
X19251Y33789D01*
X18951D02*X19101D01*
X19176Y33864D01*
X19431Y34089D02*Y33864D01*
X19506Y33789D01*
X19731Y34089D02*Y33639D01*
X19656Y33564D02*X19731Y33639D01*
X19506Y33564D02*X19656D01*
X19431Y33639D02*X19506Y33564D01*
Y33789D02*X19656D01*
X19731Y33864D01*
X19911Y34014D02*Y33864D01*
Y34014D02*X19986Y34089D01*
X20136D01*
X20211Y34014D01*
Y33864D01*
X20136Y33789D02*X20211Y33864D01*
X19986Y33789D02*X20136D01*
X19911Y33864D02*X19986Y33789D01*
X20391Y34089D02*Y33864D01*
X20466Y33789D01*
X20616D01*
X20691Y33864D01*
Y34089D02*Y33864D01*
X20946Y34389D02*Y33864D01*
X21021Y33789D01*
X20871Y34164D02*X21021D01*
X21171Y33639D02*X21321Y33789D01*
X21846D02*X21996D01*
X21921Y34389D02*Y33789D01*
X21771Y34239D02*X21921Y34389D01*
X22252Y33789D02*X22402D01*
X22327Y34389D02*Y33789D01*
X22177Y34239D02*X22327Y34389D01*
X22582D02*X22882D01*
X22582D02*Y34089D01*
X22657Y34164D01*
X22807D01*
X22882Y34089D01*
Y33864D01*
X22807Y33789D02*X22882Y33864D01*
X22657Y33789D02*X22807D01*
X22582Y33864D02*X22657Y33789D01*
X23332Y34389D02*Y33789D01*
Y34014D02*X23407Y34089D01*
X23557D01*
X23632Y34014D01*
Y33789D01*
X23812Y34014D02*Y33864D01*
Y34014D02*X23887Y34089D01*
X24037D01*
X24112Y34014D01*
Y33864D01*
X24037Y33789D02*X24112Y33864D01*
X23887Y33789D02*X24037D01*
X23812Y33864D02*X23887Y33789D01*
X24292Y34389D02*Y33864D01*
X24367Y33789D01*
X24592D02*X24817D01*
X24517Y33864D02*X24592Y33789D01*
X24517Y34014D02*Y33864D01*
Y34014D02*X24592Y34089D01*
X24742D01*
X24817Y34014D01*
X24517Y33939D02*X24817D01*
Y34014D02*Y33939D01*
X25072Y33789D02*X25297D01*
X25372Y33864D01*
X25297Y33939D02*X25372Y33864D01*
X25072Y33939D02*X25297D01*
X24997Y34014D02*X25072Y33939D01*
X24997Y34014D02*X25072Y34089D01*
X25297D01*
X25372Y34014D01*
X24997Y33864D02*X25072Y33789D01*
X25898Y34389D02*Y33864D01*
X25973Y33789D01*
X25823Y34164D02*X25973D01*
X26123Y34014D02*Y33864D01*
Y34014D02*X26198Y34089D01*
X26348D01*
X26423Y34014D01*
Y33864D01*
X26348Y33789D02*X26423Y33864D01*
X26198Y33789D02*X26348D01*
X26123Y33864D02*X26198Y33789D01*
X26678Y34389D02*Y33864D01*
X26753Y33789D01*
X26603Y34164D02*X26753D01*
X27128Y34089D02*X27203Y34014D01*
X26978Y34089D02*X27128D01*
X26903Y34014D02*X26978Y34089D01*
X26903Y34014D02*Y33864D01*
X26978Y33789D01*
X27203Y34089D02*Y33864D01*
X27278Y33789D01*
X26978D02*X27128D01*
X27203Y33864D01*
X27458Y34389D02*Y33864D01*
X27533Y33789D01*
G54D13*X0Y15039D02*X38267D01*
X0D02*Y0D01*
X38267Y15039D02*Y0D01*
X0D02*X38267D01*
G54D59*X20000Y16389D02*Y15789D01*
Y16389D02*X20225Y16164D01*
X20450Y16389D01*
Y15789D01*
X20855Y16089D02*X20930Y16014D01*
X20705Y16089D02*X20855D01*
X20630Y16014D02*X20705Y16089D01*
X20630Y16014D02*Y15864D01*
X20705Y15789D01*
X20930Y16089D02*Y15864D01*
X21005Y15789D01*
X20705D02*X20855D01*
X20930Y15864D01*
X21185Y16089D02*X21485Y15789D01*
X21185D02*X21485Y16089D01*
X21665Y16239D02*Y16164D01*
Y16014D02*Y15789D01*
X21890Y16014D02*Y15789D01*
Y16014D02*X21965Y16089D01*
X22040D01*
X22115Y16014D01*
Y15789D01*
Y16014D02*X22190Y16089D01*
X22265D01*
X22340Y16014D01*
Y15789D01*
X21815Y16089D02*X21890Y16014D01*
X22520Y16089D02*Y15864D01*
X22595Y15789D01*
X22745D01*
X22820Y15864D01*
Y16089D02*Y15864D01*
X23075Y16014D02*Y15789D01*
Y16014D02*X23150Y16089D01*
X23225D01*
X23300Y16014D01*
Y15789D01*
Y16014D02*X23375Y16089D01*
X23450D01*
X23525Y16014D01*
Y15789D01*
X23000Y16089D02*X23075Y16014D01*
X24051Y16389D02*Y15789D01*
X24276Y16389D02*X24351Y16314D01*
Y15864D01*
X24276Y15789D02*X24351Y15864D01*
X23976Y15789D02*X24276D01*
X23976Y16389D02*X24276D01*
X24531Y16239D02*Y16164D01*
Y16014D02*Y15789D01*
X24756Y16014D02*Y15789D01*
Y16014D02*X24831Y16089D01*
X24906D01*
X24981Y16014D01*
Y15789D01*
Y16014D02*X25056Y16089D01*
X25131D01*
X25206Y16014D01*
Y15789D01*
X24681Y16089D02*X24756Y16014D01*
X25461Y15789D02*X25686D01*
X25386Y15864D02*X25461Y15789D01*
X25386Y16014D02*Y15864D01*
Y16014D02*X25461Y16089D01*
X25611D01*
X25686Y16014D01*
X25386Y15939D02*X25686D01*
Y16014D02*Y15939D01*
X25941Y16014D02*Y15789D01*
Y16014D02*X26016Y16089D01*
X26091D01*
X26166Y16014D01*
Y15789D01*
X25866Y16089D02*X25941Y16014D01*
X26421Y15789D02*X26646D01*
X26721Y15864D01*
X26646Y15939D02*X26721Y15864D01*
X26421Y15939D02*X26646D01*
X26346Y16014D02*X26421Y15939D01*
X26346Y16014D02*X26421Y16089D01*
X26646D01*
X26721Y16014D01*
X26346Y15864D02*X26421Y15789D01*
X26901Y16239D02*Y16164D01*
Y16014D02*Y15789D01*
X27052Y16014D02*Y15864D01*
Y16014D02*X27127Y16089D01*
X27277D01*
X27352Y16014D01*
Y15864D01*
X27277Y15789D02*X27352Y15864D01*
X27127Y15789D02*X27277D01*
X27052Y15864D02*X27127Y15789D01*
X27607Y16014D02*Y15789D01*
Y16014D02*X27682Y16089D01*
X27757D01*
X27832Y16014D01*
Y15789D01*
X27532Y16089D02*X27607Y16014D01*
X28087Y15789D02*X28312D01*
X28387Y15864D01*
X28312Y15939D02*X28387Y15864D01*
X28087Y15939D02*X28312D01*
X28012Y16014D02*X28087Y15939D01*
X28012Y16014D02*X28087Y16089D01*
X28312D01*
X28387Y16014D01*
X28012Y15864D02*X28087Y15789D01*
X28567Y16164D02*X28642D01*
X28567Y16014D02*X28642D01*
X29092Y16314D02*X29167Y16389D01*
X29317D01*
X29392Y16314D01*
Y15864D01*
X29317Y15789D02*X29392Y15864D01*
X29167Y15789D02*X29317D01*
X29092Y15864D02*X29167Y15789D01*
Y16089D02*X29392D01*
X29572Y15864D02*X29647Y15789D01*
X29572Y16014D02*Y15864D01*
Y16014D02*X29647Y16089D01*
X29797D01*
X29872Y16014D01*
Y15864D01*
X29797Y15789D02*X29872Y15864D01*
X29647Y15789D02*X29797D01*
X29572Y16164D02*X29647Y16089D01*
X29572Y16314D02*Y16164D01*
Y16314D02*X29647Y16389D01*
X29797D01*
X29872Y16314D01*
Y16164D01*
X29797Y16089D02*X29872Y16164D01*
X30053Y16314D02*X30128Y16389D01*
X30353D01*
X30428Y16314D01*
Y16164D01*
X30053Y15789D02*X30428Y16164D01*
X30053Y15789D02*X30428D01*
X30833Y16389D02*X30908Y16314D01*
X30683Y16389D02*X30833D01*
X30608Y16314D02*X30683Y16389D01*
X30608Y16314D02*Y15864D01*
X30683Y15789D01*
X30833Y16089D02*X30908Y16014D01*
X30608Y16089D02*X30833D01*
X30683Y15789D02*X30833D01*
X30908Y15864D01*
Y16014D02*Y15864D01*
X31433Y16014D02*Y15789D01*
Y16014D02*X31508Y16089D01*
X31583D01*
X31658Y16014D01*
Y15789D01*
Y16014D02*X31733Y16089D01*
X31808D01*
X31883Y16014D01*
Y15789D01*
X31358Y16089D02*X31433Y16014D01*
X32063Y16239D02*Y16164D01*
Y16014D02*Y15789D01*
X32213Y16389D02*Y15864D01*
X32288Y15789D01*
X32513D02*X32738D01*
X32813Y15864D01*
X32738Y15939D02*X32813Y15864D01*
X32513Y15939D02*X32738D01*
X32438Y16014D02*X32513Y15939D01*
X32438Y16014D02*X32513Y16089D01*
X32738D01*
X32813Y16014D01*
X32438Y15864D02*X32513Y15789D01*
X33263Y16089D02*Y15864D01*
X33338Y15789D01*
X33413D01*
X33488Y15864D01*
Y16089D02*Y15864D01*
X33563Y15789D01*
X33638D01*
X33713Y15864D01*
Y16089D02*Y15864D01*
X33894Y16239D02*Y16164D01*
Y16014D02*Y15789D01*
X34344Y16389D02*Y15789D01*
X34269D02*X34344Y15864D01*
X34119Y15789D02*X34269D01*
X34044Y15864D02*X34119Y15789D01*
X34044Y16014D02*Y15864D01*
Y16014D02*X34119Y16089D01*
X34269D01*
X34344Y16014D01*
X34599Y15789D02*X34824D01*
X34524Y15864D02*X34599Y15789D01*
X34524Y16014D02*Y15864D01*
Y16014D02*X34599Y16089D01*
X34749D01*
X34824Y16014D01*
X34524Y15939D02*X34824D01*
Y16014D02*Y15939D01*
X35004Y15639D02*X35154Y15789D01*
X35679D02*X35829D01*
X35754Y16389D02*Y15789D01*
X35604Y16239D02*X35754Y16389D01*
X36009D02*X36309D01*
X36009D02*Y16089D01*
X36084Y16164D01*
X36234D01*
X36309Y16089D01*
Y15864D01*
X36234Y15789D02*X36309Y15864D01*
X36084Y15789D02*X36234D01*
X36009Y15864D02*X36084Y15789D01*
X36489Y15864D02*X36564Y15789D01*
X36489Y16314D02*Y15864D01*
Y16314D02*X36564Y16389D01*
X36714D01*
X36789Y16314D01*
Y15864D01*
X36714Y15789D02*X36789Y15864D01*
X36564Y15789D02*X36714D01*
X36489Y15939D02*X36789Y16239D01*
X36970Y16314D02*X37045Y16389D01*
X37195D01*
X37270Y16314D01*
Y15864D01*
X37195Y15789D02*X37270Y15864D01*
X37045Y15789D02*X37195D01*
X36970Y15864D02*X37045Y15789D01*
Y16089D02*X37270D01*
X37795Y16014D02*Y15789D01*
Y16014D02*X37870Y16089D01*
X37945D01*
X38020Y16014D01*
Y15789D01*
Y16014D02*X38095Y16089D01*
X38170D01*
X38245Y16014D01*
Y15789D01*
X37720Y16089D02*X37795Y16014D01*
X38425Y16239D02*Y16164D01*
Y16014D02*Y15789D01*
X38575Y16389D02*Y15864D01*
X38650Y15789D01*
X38875D02*X39100D01*
X39175Y15864D01*
X39100Y15939D02*X39175Y15864D01*
X38875Y15939D02*X39100D01*
X38800Y16014D02*X38875Y15939D01*
X38800Y16014D02*X38875Y16089D01*
X39100D01*
X39175Y16014D01*
X38800Y15864D02*X38875Y15789D01*
X39625Y16389D02*Y15789D01*
Y16014D02*X39700Y16089D01*
X39850D01*
X39925Y16014D01*
Y15789D01*
X40106Y16239D02*Y16164D01*
Y16014D02*Y15789D01*
X40481Y16089D02*X40556Y16014D01*
X40331Y16089D02*X40481D01*
X40256Y16014D02*X40331Y16089D01*
X40256Y16014D02*Y15864D01*
X40331Y15789D01*
X40481D01*
X40556Y15864D01*
X40256Y15639D02*X40331Y15564D01*
X40481D01*
X40556Y15639D01*
Y16089D02*Y15639D01*
X40736Y16389D02*Y15789D01*
Y16014D02*X40811Y16089D01*
X40961D01*
X41036Y16014D01*
Y15789D01*
X3356Y-950D02*X3656D01*
X3731Y-875D01*
Y-725D02*Y-875D01*
X3656Y-650D02*X3731Y-725D01*
X3431Y-650D02*X3656D01*
X3431Y-350D02*Y-950D01*
X3356Y-350D02*X3656D01*
X3731Y-425D01*
Y-575D01*
X3656Y-650D02*X3731Y-575D01*
X3911Y-725D02*Y-875D01*
Y-725D02*X3986Y-650D01*
X4136D01*
X4211Y-725D01*
Y-875D01*
X4136Y-950D02*X4211Y-875D01*
X3986Y-950D02*X4136D01*
X3911Y-875D02*X3986Y-950D01*
X4616Y-650D02*X4691Y-725D01*
X4466Y-650D02*X4616D01*
X4391Y-725D02*X4466Y-650D01*
X4391Y-725D02*Y-875D01*
X4466Y-950D01*
X4691Y-650D02*Y-875D01*
X4766Y-950D01*
X4466D02*X4616D01*
X4691Y-875D01*
X5021Y-725D02*Y-950D01*
Y-725D02*X5096Y-650D01*
X5246D01*
X4946D02*X5021Y-725D01*
X5727Y-350D02*Y-950D01*
X5652D02*X5727Y-875D01*
X5502Y-950D02*X5652D01*
X5427Y-875D02*X5502Y-950D01*
X5427Y-725D02*Y-875D01*
Y-725D02*X5502Y-650D01*
X5652D01*
X5727Y-725D01*
X6177D02*Y-875D01*
Y-725D02*X6252Y-650D01*
X6402D01*
X6477Y-725D01*
Y-875D01*
X6402Y-950D02*X6477Y-875D01*
X6252Y-950D02*X6402D01*
X6177Y-875D02*X6252Y-950D01*
X6657Y-650D02*Y-875D01*
X6732Y-950D01*
X6882D01*
X6957Y-875D01*
Y-650D02*Y-875D01*
X7212Y-350D02*Y-875D01*
X7287Y-950D01*
X7137Y-575D02*X7287D01*
X7437Y-350D02*Y-875D01*
X7512Y-950D01*
X7662Y-500D02*Y-575D01*
Y-725D02*Y-950D01*
X7887Y-725D02*Y-950D01*
Y-725D02*X7962Y-650D01*
X8037D01*
X8112Y-725D01*
Y-950D01*
X7812Y-650D02*X7887Y-725D01*
X8368Y-950D02*X8593D01*
X8293Y-875D02*X8368Y-950D01*
X8293Y-725D02*Y-875D01*
Y-725D02*X8368Y-650D01*
X8518D01*
X8593Y-725D01*
X8293Y-800D02*X8593D01*
Y-725D02*Y-800D01*
X9043Y-500D02*Y-575D01*
Y-725D02*Y-950D01*
X9268D02*X9493D01*
X9568Y-875D01*
X9493Y-800D02*X9568Y-875D01*
X9268Y-800D02*X9493D01*
X9193Y-725D02*X9268Y-800D01*
X9193Y-725D02*X9268Y-650D01*
X9493D01*
X9568Y-725D01*
X9193Y-875D02*X9268Y-950D01*
X10093Y-350D02*Y-875D01*
X10168Y-950D01*
X10018Y-575D02*X10168D01*
X10318Y-350D02*Y-950D01*
Y-725D02*X10393Y-650D01*
X10543D01*
X10618Y-725D01*
Y-950D01*
X10873D02*X11098D01*
X10798Y-875D02*X10873Y-950D01*
X10798Y-725D02*Y-875D01*
Y-725D02*X10873Y-650D01*
X11023D01*
X11098Y-725D01*
X10798Y-800D02*X11098D01*
Y-725D02*Y-800D01*
X11623Y-650D02*X11848D01*
X11548Y-725D02*X11623Y-650D01*
X11548Y-725D02*Y-875D01*
X11623Y-950D01*
X11848D01*
X12104D02*X12329D01*
X12029Y-875D02*X12104Y-950D01*
X12029Y-725D02*Y-875D01*
Y-725D02*X12104Y-650D01*
X12254D01*
X12329Y-725D01*
X12029Y-800D02*X12329D01*
Y-725D02*Y-800D01*
X12584Y-725D02*Y-950D01*
Y-725D02*X12659Y-650D01*
X12734D01*
X12809Y-725D01*
Y-950D01*
X12509Y-650D02*X12584Y-725D01*
X13064Y-350D02*Y-875D01*
X13139Y-950D01*
X12989Y-575D02*X13139D01*
X13364Y-950D02*X13589D01*
X13289Y-875D02*X13364Y-950D01*
X13289Y-725D02*Y-875D01*
Y-725D02*X13364Y-650D01*
X13514D01*
X13589Y-725D01*
X13289Y-800D02*X13589D01*
Y-725D02*Y-800D01*
X13844Y-725D02*Y-950D01*
Y-725D02*X13919Y-650D01*
X14069D01*
X13769D02*X13844Y-725D01*
X14249Y-350D02*Y-875D01*
X14324Y-950D01*
X14475Y-500D02*Y-575D01*
Y-725D02*Y-950D01*
X14700Y-725D02*Y-950D01*
Y-725D02*X14775Y-650D01*
X14850D01*
X14925Y-725D01*
Y-950D01*
X14625Y-650D02*X14700Y-725D01*
X15180Y-950D02*X15405D01*
X15105Y-875D02*X15180Y-950D01*
X15105Y-725D02*Y-875D01*
Y-725D02*X15180Y-650D01*
X15330D01*
X15405Y-725D01*
X15105Y-800D02*X15405D01*
Y-725D02*Y-800D01*
X15855Y-725D02*Y-875D01*
Y-725D02*X15930Y-650D01*
X16080D01*
X16155Y-725D01*
Y-875D01*
X16080Y-950D02*X16155Y-875D01*
X15930Y-950D02*X16080D01*
X15855Y-875D02*X15930Y-950D01*
X16410Y-425D02*Y-950D01*
Y-425D02*X16485Y-350D01*
X16560D01*
X16335Y-650D02*X16485D01*
X17055Y-350D02*Y-875D01*
X17130Y-950D01*
X16980Y-575D02*X17130D01*
X17280Y-350D02*Y-950D01*
Y-725D02*X17355Y-650D01*
X17505D01*
X17580Y-725D01*
Y-950D01*
X17761Y-500D02*Y-575D01*
Y-725D02*Y-950D01*
X17986D02*X18211D01*
X18286Y-875D01*
X18211Y-800D02*X18286Y-875D01*
X17986Y-800D02*X18211D01*
X17911Y-725D02*X17986Y-800D01*
X17911Y-725D02*X17986Y-650D01*
X18211D01*
X18286Y-725D01*
X17911Y-875D02*X17986Y-950D01*
X18811D02*X18961D01*
X18886Y-350D02*Y-950D01*
X18736Y-500D02*X18886Y-350D01*
X19141Y-875D02*X19216Y-950D01*
X19141Y-425D02*Y-875D01*
Y-425D02*X19216Y-350D01*
X19366D01*
X19441Y-425D01*
Y-875D01*
X19366Y-950D02*X19441Y-875D01*
X19216Y-950D02*X19366D01*
X19141Y-800D02*X19441Y-500D01*
X19966Y-725D02*Y-950D01*
Y-725D02*X20041Y-650D01*
X20116D01*
X20191Y-725D01*
Y-950D01*
Y-725D02*X20266Y-650D01*
X20341D01*
X20416Y-725D01*
Y-950D01*
X19891Y-650D02*X19966Y-725D01*
X20596Y-500D02*Y-575D01*
Y-725D02*Y-950D01*
X20746Y-350D02*Y-875D01*
X20821Y-950D01*
X21317Y-725D02*Y-950D01*
Y-725D02*X21392Y-650D01*
X21542D01*
X21242D02*X21317Y-725D01*
X21797Y-950D02*X22022D01*
X21722Y-875D02*X21797Y-950D01*
X21722Y-725D02*Y-875D01*
Y-725D02*X21797Y-650D01*
X21947D01*
X22022Y-725D01*
X21722Y-800D02*X22022D01*
Y-725D02*Y-800D01*
X22277Y-650D02*X22502D01*
X22202Y-725D02*X22277Y-650D01*
X22202Y-725D02*Y-875D01*
X22277Y-950D01*
X22502D01*
X22757Y-350D02*Y-875D01*
X22832Y-950D01*
X22682Y-575D02*X22832D01*
X23207Y-650D02*X23282Y-725D01*
X23057Y-650D02*X23207D01*
X22982Y-725D02*X23057Y-650D01*
X22982Y-725D02*Y-875D01*
X23057Y-950D01*
X23282Y-650D02*Y-875D01*
X23357Y-950D01*
X23057D02*X23207D01*
X23282Y-875D01*
X23612Y-725D02*Y-950D01*
Y-725D02*X23687Y-650D01*
X23762D01*
X23837Y-725D01*
Y-950D01*
X23537Y-650D02*X23612Y-725D01*
X24243Y-650D02*X24318Y-725D01*
X24093Y-650D02*X24243D01*
X24018Y-725D02*X24093Y-650D01*
X24018Y-725D02*Y-875D01*
X24093Y-950D01*
X24243D01*
X24318Y-875D01*
X24018Y-1100D02*X24093Y-1175D01*
X24243D01*
X24318Y-1100D01*
Y-650D02*Y-1100D01*
X24498Y-350D02*Y-875D01*
X24573Y-950D01*
X24798D02*X25023D01*
X24723Y-875D02*X24798Y-950D01*
X24723Y-725D02*Y-875D01*
Y-725D02*X24798Y-650D01*
X24948D01*
X25023Y-725D01*
X24723Y-800D02*X25023D01*
Y-725D02*Y-800D01*
X25473Y-650D02*X25773D01*
X26223Y-875D02*X26298Y-950D01*
X26223Y-425D02*Y-875D01*
Y-425D02*X26298Y-350D01*
X26448D01*
X26523Y-425D01*
Y-875D01*
X26448Y-950D02*X26523Y-875D01*
X26298Y-950D02*X26448D01*
X26223Y-800D02*X26523Y-500D01*
X26703Y-1100D02*X26853Y-950D01*
X27033Y-875D02*X27108Y-950D01*
X27033Y-425D02*Y-875D01*
Y-425D02*X27108Y-350D01*
X27258D01*
X27333Y-425D01*
Y-875D01*
X27258Y-950D02*X27333Y-875D01*
X27108Y-950D02*X27258D01*
X27033Y-800D02*X27333Y-500D01*
X27859Y-350D02*Y-875D01*
X27934Y-950D01*
X27784Y-575D02*X27934D01*
X28084Y-725D02*Y-875D01*
Y-725D02*X28159Y-650D01*
X28309D01*
X28384Y-725D01*
Y-875D01*
X28309Y-950D02*X28384Y-875D01*
X28159Y-950D02*X28309D01*
X28084Y-875D02*X28159Y-950D01*
X28834Y-425D02*X28909Y-350D01*
X29059D01*
X29134Y-425D01*
Y-875D01*
X29059Y-950D02*X29134Y-875D01*
X28909Y-950D02*X29059D01*
X28834Y-875D02*X28909Y-950D01*
Y-650D02*X29134D01*
X29314Y-875D02*X29389Y-950D01*
X29314Y-725D02*Y-875D01*
Y-725D02*X29389Y-650D01*
X29539D01*
X29614Y-725D01*
Y-875D01*
X29539Y-950D02*X29614Y-875D01*
X29389Y-950D02*X29539D01*
X29314Y-575D02*X29389Y-650D01*
X29314Y-425D02*Y-575D01*
Y-425D02*X29389Y-350D01*
X29539D01*
X29614Y-425D01*
Y-575D01*
X29539Y-650D02*X29614Y-575D01*
X29794Y-425D02*X29869Y-350D01*
X30094D01*
X30169Y-425D01*
Y-575D01*
X29794Y-950D02*X30169Y-575D01*
X29794Y-950D02*X30169D01*
X30574Y-350D02*X30649Y-425D01*
X30424Y-350D02*X30574D01*
X30349Y-425D02*X30424Y-350D01*
X30349Y-425D02*Y-875D01*
X30424Y-950D01*
X30574Y-650D02*X30649Y-725D01*
X30349Y-650D02*X30574D01*
X30424Y-950D02*X30574D01*
X30649Y-875D01*
Y-725D02*Y-875D01*
X30829Y-1100D02*X30979Y-950D01*
X31235D02*X31385D01*
X31310Y-350D02*Y-950D01*
X31160Y-500D02*X31310Y-350D01*
X31565D02*X31865D01*
X31565D02*Y-650D01*
X31640Y-575D01*
X31790D01*
X31865Y-650D01*
Y-875D01*
X31790Y-950D02*X31865Y-875D01*
X31640Y-950D02*X31790D01*
X31565Y-875D02*X31640Y-950D01*
X32045Y-875D02*X32120Y-950D01*
X32045Y-425D02*Y-875D01*
Y-425D02*X32120Y-350D01*
X32270D01*
X32345Y-425D01*
Y-875D01*
X32270Y-950D02*X32345Y-875D01*
X32120Y-950D02*X32270D01*
X32045Y-800D02*X32345Y-500D01*
X32525Y-425D02*X32600Y-350D01*
X32750D01*
X32825Y-425D01*
Y-875D01*
X32750Y-950D02*X32825Y-875D01*
X32600Y-950D02*X32750D01*
X32525Y-875D02*X32600Y-950D01*
Y-650D02*X32825D01*
X33350Y-725D02*Y-950D01*
Y-725D02*X33425Y-650D01*
X33500D01*
X33575Y-725D01*
Y-950D01*
Y-725D02*X33650Y-650D01*
X33725D01*
X33800Y-725D01*
Y-950D01*
X33275Y-650D02*X33350Y-725D01*
X33980Y-500D02*Y-575D01*
Y-725D02*Y-950D01*
X34131Y-350D02*Y-875D01*
X34206Y-950D01*
X34431D02*X34656D01*
X34731Y-875D01*
X34656Y-800D02*X34731Y-875D01*
X34431Y-800D02*X34656D01*
X34356Y-725D02*X34431Y-800D01*
X34356Y-725D02*X34431Y-650D01*
X34656D01*
X34731Y-725D01*
X34356Y-875D02*X34431Y-950D01*
X20075Y17889D02*Y17289D01*
X20300Y17889D02*X20375Y17814D01*
Y17364D01*
X20300Y17289D02*X20375Y17364D01*
X20000Y17289D02*X20300D01*
X20000Y17889D02*X20300D01*
X20780Y17589D02*X20855Y17514D01*
X20630Y17589D02*X20780D01*
X20555Y17514D02*X20630Y17589D01*
X20555Y17514D02*Y17364D01*
X20630Y17289D01*
X20855Y17589D02*Y17364D01*
X20930Y17289D01*
X20630D02*X20780D01*
X20855Y17364D01*
X21185Y17889D02*Y17364D01*
X21260Y17289D01*
X21110Y17664D02*X21260D01*
X21485Y17289D02*X21710D01*
X21410Y17364D02*X21485Y17289D01*
X21410Y17514D02*Y17364D01*
Y17514D02*X21485Y17589D01*
X21635D01*
X21710Y17514D01*
X21410Y17439D02*X21710D01*
Y17514D02*Y17439D01*
X21890Y17664D02*X21965D01*
X21890Y17514D02*X21965D01*
X22415Y17889D02*Y17289D01*
Y17889D02*X22640Y17664D01*
X22865Y17889D01*
Y17289D01*
X23045Y17739D02*Y17664D01*
Y17514D02*Y17289D01*
X23541D02*X23691D01*
X23616Y17889D02*Y17289D01*
X23466Y17739D02*X23616Y17889D01*
X24096D02*X24171Y17814D01*
X23946Y17889D02*X24096D01*
X23871Y17814D02*X23946Y17889D01*
X23871Y17814D02*Y17364D01*
X23946Y17289D01*
X24096Y17589D02*X24171Y17514D01*
X23871Y17589D02*X24096D01*
X23946Y17289D02*X24096D01*
X24171Y17364D01*
Y17514D02*Y17364D01*
X24921Y17889D02*X24996Y17814D01*
X24696Y17889D02*X24921D01*
X24621Y17814D02*X24696Y17889D01*
X24621Y17814D02*Y17664D01*
X24696Y17589D01*
X24921D01*
X24996Y17514D01*
Y17364D01*
X24921Y17289D02*X24996Y17364D01*
X24696Y17289D02*X24921D01*
X24621Y17364D02*X24696Y17289D01*
X25251D02*X25476D01*
X25176Y17364D02*X25251Y17289D01*
X25176Y17514D02*Y17364D01*
Y17514D02*X25251Y17589D01*
X25401D01*
X25476Y17514D01*
X25176Y17439D02*X25476D01*
Y17514D02*Y17439D01*
X25731Y17514D02*Y17064D01*
X25656Y17589D02*X25731Y17514D01*
X25806Y17589D01*
X25956D01*
X26031Y17514D01*
Y17364D01*
X25956Y17289D02*X26031Y17364D01*
X25806Y17289D02*X25956D01*
X25731Y17364D02*X25806Y17289D01*
X26481Y17814D02*X26556Y17889D01*
X26781D01*
X26856Y17814D01*
Y17664D01*
X26481Y17289D02*X26856Y17664D01*
X26481Y17289D02*X26856D01*
X27036Y17364D02*X27111Y17289D01*
X27036Y17814D02*Y17364D01*
Y17814D02*X27111Y17889D01*
X27261D01*
X27336Y17814D01*
Y17364D01*
X27261Y17289D02*X27336Y17364D01*
X27111Y17289D02*X27261D01*
X27036Y17439D02*X27336Y17739D01*
X27517Y17364D02*X27592Y17289D01*
X27517Y17814D02*Y17364D01*
Y17814D02*X27592Y17889D01*
X27742D01*
X27817Y17814D01*
Y17364D01*
X27742Y17289D02*X27817Y17364D01*
X27592Y17289D02*X27742D01*
X27517Y17439D02*X27817Y17739D01*
X27997Y17289D02*X28297Y17589D01*
Y17814D02*Y17589D01*
X28222Y17889D02*X28297Y17814D01*
X28072Y17889D02*X28222D01*
X27997Y17814D02*X28072Y17889D01*
X27997Y17814D02*Y17664D01*
X28072Y17589D01*
X28297D01*
X28822Y17289D02*X28972D01*
X28897Y17889D02*Y17289D01*
X28747Y17739D02*X28897Y17889D01*
X29152Y17289D02*X29452Y17589D01*
Y17814D02*Y17589D01*
X29377Y17889D02*X29452Y17814D01*
X29227Y17889D02*X29377D01*
X29152Y17814D02*X29227Y17889D01*
X29152Y17814D02*Y17664D01*
X29227Y17589D01*
X29452D01*
X29632Y17664D02*X29707D01*
X29632Y17514D02*X29707D01*
X29887Y17889D02*X30187D01*
X29887D02*Y17589D01*
X29962Y17664D01*
X30112D01*
X30187Y17589D01*
Y17364D01*
X30112Y17289D02*X30187Y17364D01*
X29962Y17289D02*X30112D01*
X29887Y17364D02*X29962Y17289D01*
X30368Y17814D02*X30443Y17889D01*
X30593D01*
X30668Y17814D01*
Y17364D01*
X30593Y17289D02*X30668Y17364D01*
X30443Y17289D02*X30593D01*
X30368Y17364D02*X30443Y17289D01*
Y17589D02*X30668D01*
X30848Y17664D02*X30923D01*
X30848Y17514D02*X30923D01*
X31103Y17364D02*X31178Y17289D01*
X31103Y17814D02*Y17364D01*
Y17814D02*X31178Y17889D01*
X31328D01*
X31403Y17814D01*
Y17364D01*
X31328Y17289D02*X31403Y17364D01*
X31178Y17289D02*X31328D01*
X31103Y17439D02*X31403Y17739D01*
X31808Y17889D02*X31883Y17814D01*
X31658Y17889D02*X31808D01*
X31583Y17814D02*X31658Y17889D01*
X31583Y17814D02*Y17364D01*
X31658Y17289D01*
X31808Y17589D02*X31883Y17514D01*
X31583Y17589D02*X31808D01*
X31658Y17289D02*X31808D01*
X31883Y17364D01*
Y17514D02*Y17364D01*
X32633Y17889D02*X32708Y17814D01*
X32408Y17889D02*X32633D01*
X32333Y17814D02*X32408Y17889D01*
X32333Y17814D02*Y17364D01*
X32408Y17289D01*
X32633D01*
X32708Y17364D01*
Y17514D02*Y17364D01*
X32633Y17589D02*X32708Y17514D01*
X32483Y17589D02*X32633D01*
X32888Y17889D02*Y17289D01*
Y17889D02*X33113Y17664D01*
X33338Y17889D01*
Y17289D01*
X33518Y17889D02*X33818D01*
X33668D02*Y17289D01*
X34269Y17889D02*Y17364D01*
X34344Y17289D01*
X34494D01*
X34569Y17364D01*
Y17889D02*Y17364D01*
X34749Y17889D02*X35049D01*
X34899D02*Y17289D01*
X35304D02*X35529D01*
X35229Y17364D02*X35304Y17289D01*
X35229Y17814D02*Y17364D01*
Y17814D02*X35304Y17889D01*
X35529D01*
X20000Y19314D02*Y18789D01*
Y19314D02*X20075Y19389D01*
X20300D01*
X20375Y19314D01*
Y18789D01*
X20000Y19089D02*X20375D01*
X20555D02*Y18864D01*
X20630Y18789D01*
X20780D01*
X20855Y18864D01*
Y19089D02*Y18864D01*
X21110Y19389D02*Y18864D01*
X21185Y18789D01*
X21035Y19164D02*X21185D01*
X21335Y19389D02*Y18789D01*
Y19014D02*X21410Y19089D01*
X21560D01*
X21635Y19014D01*
Y18789D01*
X21815Y19014D02*Y18864D01*
Y19014D02*X21890Y19089D01*
X22040D01*
X22115Y19014D01*
Y18864D01*
X22040Y18789D02*X22115Y18864D01*
X21890Y18789D02*X22040D01*
X21815Y18864D02*X21890Y18789D01*
X22370Y19014D02*Y18789D01*
Y19014D02*X22445Y19089D01*
X22595D01*
X22295D02*X22370Y19014D01*
X22775Y19164D02*X22850D01*
X22775Y19014D02*X22850D01*
X23376Y18789D02*X23601D01*
X23301Y18864D02*X23376Y18789D01*
X23301Y19314D02*Y18864D01*
Y19314D02*X23376Y19389D01*
X23601D01*
X23781D02*Y18789D01*
Y19014D02*X23856Y19089D01*
X24006D01*
X24081Y19014D01*
Y18789D01*
X24336Y19014D02*Y18789D01*
Y19014D02*X24411Y19089D01*
X24561D01*
X24261D02*X24336Y19014D01*
X24741Y19239D02*Y19164D01*
Y19014D02*Y18789D01*
X24966D02*X25191D01*
X25266Y18864D01*
X25191Y18939D02*X25266Y18864D01*
X24966Y18939D02*X25191D01*
X24891Y19014D02*X24966Y18939D01*
X24891Y19014D02*X24966Y19089D01*
X25191D01*
X25266Y19014D01*
X24891Y18864D02*X24966Y18789D01*
X25521Y19389D02*Y18864D01*
X25596Y18789D01*
X25446Y19164D02*X25596D01*
X25746Y19239D02*Y19164D01*
Y19014D02*Y18789D01*
X26122Y19089D02*X26197Y19014D01*
X25972Y19089D02*X26122D01*
X25897Y19014D02*X25972Y19089D01*
X25897Y19014D02*Y18864D01*
X25972Y18789D01*
X26197Y19089D02*Y18864D01*
X26272Y18789D01*
X25972D02*X26122D01*
X26197Y18864D01*
X26527Y19014D02*Y18789D01*
Y19014D02*X26602Y19089D01*
X26677D01*
X26752Y19014D01*
Y18789D01*
X26452Y19089D02*X26527Y19014D01*
X27277Y19389D02*Y18789D01*
X27502Y19389D02*X27577Y19314D01*
Y18864D01*
X27502Y18789D02*X27577Y18864D01*
X27202Y18789D02*X27502D01*
X27202Y19389D02*X27502D01*
X27757Y19239D02*Y19164D01*
Y19014D02*Y18789D01*
X27982D02*X28207D01*
X27907Y18864D02*X27982Y18789D01*
X27907Y19014D02*Y18864D01*
Y19014D02*X27982Y19089D01*
X28132D01*
X28207Y19014D01*
X27907Y18939D02*X28207D01*
Y19014D02*Y18939D01*
X28462Y19389D02*Y18864D01*
X28537Y18789D01*
X28387Y19164D02*X28537D01*
X28763Y19014D02*Y18789D01*
Y19014D02*X28838Y19089D01*
X28988D01*
X28688D02*X28763Y19014D01*
X29168Y19239D02*Y19164D01*
Y19014D02*Y18789D01*
X29393Y19089D02*X29618D01*
X29318Y19014D02*X29393Y19089D01*
X29318Y19014D02*Y18864D01*
X29393Y18789D01*
X29618D01*
X29798Y19389D02*Y18789D01*
Y19014D02*X29873Y19089D01*
X30023D01*
X30098Y19014D01*
Y18789D01*
X20000Y20889D02*X20300D01*
X20150D02*Y20289D01*
X20480Y20739D02*Y20664D01*
Y20514D02*Y20289D01*
X20705Y20889D02*Y20364D01*
X20780Y20289D01*
X20630Y20664D02*X20780D01*
X20930Y20889D02*Y20364D01*
X21005Y20289D01*
X21230D02*X21455D01*
X21155Y20364D02*X21230Y20289D01*
X21155Y20514D02*Y20364D01*
Y20514D02*X21230Y20589D01*
X21380D01*
X21455Y20514D01*
X21155Y20439D02*X21455D01*
Y20514D02*Y20439D01*
X21635Y20664D02*X21710D01*
X21635Y20514D02*X21710D01*
X22160Y20364D02*X22235Y20289D01*
X22160Y20814D02*X22235Y20889D01*
X22160Y20814D02*Y20364D01*
X22416Y20589D02*Y20364D01*
X22491Y20289D01*
X22641D01*
X22716Y20364D01*
Y20589D02*Y20364D01*
X22971Y20514D02*Y20289D01*
Y20514D02*X23046Y20589D01*
X23121D01*
X23196Y20514D01*
Y20289D01*
X22896Y20589D02*X22971Y20514D01*
X23376Y20889D02*Y20289D01*
Y20514D02*X23601Y20289D01*
X23376Y20514D02*X23526Y20664D01*
X23856Y20514D02*Y20289D01*
Y20514D02*X23931Y20589D01*
X24006D01*
X24081Y20514D01*
Y20289D01*
X23781Y20589D02*X23856Y20514D01*
X24261D02*Y20364D01*
Y20514D02*X24336Y20589D01*
X24486D01*
X24561Y20514D01*
Y20364D01*
X24486Y20289D02*X24561Y20364D01*
X24336Y20289D02*X24486D01*
X24261Y20364D02*X24336Y20289D01*
X24741Y20589D02*Y20364D01*
X24816Y20289D01*
X24891D01*
X24966Y20364D01*
Y20589D02*Y20364D01*
X25041Y20289D01*
X25116D01*
X25191Y20364D01*
Y20589D02*Y20364D01*
X25446Y20514D02*Y20289D01*
Y20514D02*X25521Y20589D01*
X25596D01*
X25671Y20514D01*
Y20289D01*
X25371Y20589D02*X25446Y20514D01*
X25852Y20889D02*X25927Y20814D01*
Y20364D01*
X25852Y20289D02*X25927Y20364D01*
X26377Y20589D02*X26677D01*
X27127Y20889D02*Y20289D01*
Y20889D02*X27427D01*
X27127Y20589D02*X27352D01*
X27832D02*X27907Y20514D01*
X27682Y20589D02*X27832D01*
X27607Y20514D02*X27682Y20589D01*
X27607Y20514D02*Y20364D01*
X27682Y20289D01*
X27907Y20589D02*Y20364D01*
X27982Y20289D01*
X27682D02*X27832D01*
X27907Y20364D01*
X28162Y20889D02*Y20289D01*
Y20364D02*X28237Y20289D01*
X28387D01*
X28462Y20364D01*
Y20514D02*Y20364D01*
X28387Y20589D02*X28462Y20514D01*
X28237Y20589D02*X28387D01*
X28162Y20514D02*X28237Y20589D01*
X28717Y20514D02*Y20289D01*
Y20514D02*X28792Y20589D01*
X28942D01*
X28642D02*X28717Y20514D01*
X29123Y20739D02*Y20664D01*
Y20514D02*Y20289D01*
X29348Y20589D02*X29573D01*
X29273Y20514D02*X29348Y20589D01*
X29273Y20514D02*Y20364D01*
X29348Y20289D01*
X29573D01*
X29978Y20589D02*X30053Y20514D01*
X29828Y20589D02*X29978D01*
X29753Y20514D02*X29828Y20589D01*
X29753Y20514D02*Y20364D01*
X29828Y20289D01*
X30053Y20589D02*Y20364D01*
X30128Y20289D01*
X29828D02*X29978D01*
X30053Y20364D01*
X30383Y20889D02*Y20364D01*
X30458Y20289D01*
X30308Y20664D02*X30458D01*
X30608Y20739D02*Y20664D01*
Y20514D02*Y20289D01*
X30758Y20514D02*Y20364D01*
Y20514D02*X30833Y20589D01*
X30983D01*
X31058Y20514D01*
Y20364D01*
X30983Y20289D02*X31058Y20364D01*
X30833Y20289D02*X30983D01*
X30758Y20364D02*X30833Y20289D01*
X31313Y20514D02*Y20289D01*
Y20514D02*X31388Y20589D01*
X31463D01*
X31538Y20514D01*
Y20289D01*
X31238Y20589D02*X31313Y20514D01*
X32064Y20889D02*Y20289D01*
X32289Y20889D02*X32364Y20814D01*
Y20364D01*
X32289Y20289D02*X32364Y20364D01*
X31989Y20289D02*X32289D01*
X31989Y20889D02*X32289D01*
X32619Y20514D02*Y20289D01*
Y20514D02*X32694Y20589D01*
X32844D01*
X32544D02*X32619Y20514D01*
X33249Y20589D02*X33324Y20514D01*
X33099Y20589D02*X33249D01*
X33024Y20514D02*X33099Y20589D01*
X33024Y20514D02*Y20364D01*
X33099Y20289D01*
X33324Y20589D02*Y20364D01*
X33399Y20289D01*
X33099D02*X33249D01*
X33324Y20364D01*
X33579Y20589D02*Y20364D01*
X33654Y20289D01*
X33729D01*
X33804Y20364D01*
Y20589D02*Y20364D01*
X33879Y20289D01*
X33954D01*
X34029Y20364D01*
Y20589D02*Y20364D01*
X34209Y20739D02*Y20664D01*
Y20514D02*Y20289D01*
X34434Y20514D02*Y20289D01*
Y20514D02*X34509Y20589D01*
X34584D01*
X34659Y20514D01*
Y20289D01*
X34359Y20589D02*X34434Y20514D01*
X35064Y20589D02*X35139Y20514D01*
X34914Y20589D02*X35064D01*
X34839Y20514D02*X34914Y20589D01*
X34839Y20514D02*Y20364D01*
X34914Y20289D01*
X35064D01*
X35139Y20364D01*
X34839Y20139D02*X34914Y20064D01*
X35064D01*
X35139Y20139D01*
Y20589D02*Y20139D01*
M02*
