G04 start of page 2 for group 0 idx 0
G04 Title: (unknown), Kupfer unten *
G04 Creator: pcb 20080202 *
G04 CreationDate: Mi 16 Sep 2009 19:53:06 GMT UTC *
G04 For: stettberger *
G04 Format: Gerber/RS-274X *
G04 PCB-Dimensions: 382677 150394 *
G04 PCB-Coordinate-Origin: lower left *
%MOIN*%
%FSLAX24Y24*%
%LNBACK*%
%ADD11C,0.0250*%
%ADD12C,0.0200*%
%ADD13C,0.0100*%
%ADD14C,0.2500*%
%ADD15C,0.0750*%
%ADD16C,0.0650*%
%ADD17C,0.0600*%
%ADD18C,0.0680*%
%ADD19C,0.0700*%
%ADD20C,0.0730*%
%ADD21C,0.0820*%
%ADD22C,0.0780*%
%ADD23C,0.1181*%
%ADD24C,0.0787*%
%ADD25C,0.0887*%
%ADD26C,0.0630*%
%ADD27C,0.0800*%
%ADD28C,0.0380*%
%ADD29C,0.0315*%
%ADD30C,0.1250*%
%ADD31C,0.0350*%
%ADD32C,0.0280*%
%ADD33C,0.0420*%
%ADD34C,0.0400*%
%ADD35C,0.0394*%
%ADD36C,0.0591*%
%ADD37C,0.1279*%
%ADD38C,0.0355*%
G54D11*X13200Y10039D02*Y10239D01*
X14300Y3039D03*
G54D12*G36*
X17100Y2039D02*X16300D01*
X16700Y2439D01*
X17100Y2039D01*
G37*
G36*
X11400Y1739D02*X10600D01*
X11000Y2139D01*
X11400Y1739D01*
G37*
G54D11*X30900Y6339D02*X30400Y5839D01*
X28100Y6239D02*Y4439D01*
X26500Y6639D02*Y5039D01*
X27100Y4439D01*
X30400Y5839D02*Y5539D01*
X29200Y3939D02*Y6839D01*
X27900Y3239D02*X29200D01*
X30300Y3739D02*X30500D01*
X30200Y2939D02*X29200Y3939D01*
X28200Y9739D02*X26400D01*
X28100Y9039D02*X26600D01*
X27800Y8539D02*X28900Y7439D01*
X27600Y7939D02*Y7739D01*
X29100Y8039D02*X28100Y9039D01*
X29200Y8739D02*X28200Y9739D01*
X27200Y8539D02*X27800D01*
X26600Y7939D02*X27200Y8539D01*
X26600Y9039D02*X25600Y8039D01*
X26400Y9739D02*X24600Y7939D01*
X25600Y8039D02*Y7939D01*
X27300Y10239D02*X29600D01*
X28200Y12539D02*X29000D01*
X28600Y12939D02*Y12139D01*
X26600Y10939D02*X27300Y10239D01*
X25600Y12339D02*Y10939D01*
X24800Y12539D02*Y11739D01*
X32200Y6339D02*X30900D01*
X33100Y7439D02*X31350D01*
X32400Y6839D02*X30400D01*
X32900Y6339D02*X32400Y6839D01*
X33100Y6819D02*Y7439D01*
X32880Y8039D02*X29100D01*
X31400Y8739D02*X29200D01*
X34000Y8079D02*X35840D01*
X34000Y9159D02*X32880Y8039D01*
X31400Y9039D02*Y8739D01*
X29200Y6839D02*X29800Y7439D01*
X28900D02*X31300D01*
X30400Y6839D02*X29800Y6239D01*
X31400Y5539D02*X31500Y5439D01*
X29800Y6239D02*Y4239D01*
X32300Y2939D02*Y6239D01*
X32200Y6339D01*
X31100Y2939D02*X30200D01*
X31500Y3339D02*X31100Y2939D01*
X29800Y4239D02*X30300Y3739D01*
X31500Y5439D02*Y3439D01*
X32900Y2439D02*Y6339D01*
X31600Y1139D02*X32900Y2439D01*
X31600Y2239D02*X32300Y2939D01*
X35900Y8139D02*Y10439D01*
X34880Y5039D02*X36400D01*
X36800Y5439D01*
X36300Y11439D02*X36800Y10939D01*
Y10739D02*Y5439D01*
X35400Y10939D02*X33300D01*
X33000Y11439D02*X36300D01*
X35900Y10439D02*X35400Y10939D01*
X34880Y5039D02*X33100Y6819D01*
X30600Y9839D02*X31400D01*
X31000Y10239D02*Y9439D01*
X33300Y10939D02*X31400Y9039D01*
X30200Y11039D02*X30900D01*
X32900Y11439D02*X31300D01*
X30000Y10839D02*X30200Y11039D01*
X29600Y10239D02*X30000Y9839D01*
X30900Y11339D02*Y11039D01*
Y11739D02*Y11389D01*
Y11039D02*X31300Y11439D01*
X30900Y11539D02*Y11139D01*
X24600Y10639D02*X23500Y9539D01*
X20200Y10239D02*X23400D01*
X23600Y10439D01*
X24600Y10939D02*Y10639D01*
X23600Y10939D02*Y10439D01*
X17800Y6439D02*X18400Y7039D01*
X19500Y6939D02*X20300Y6139D01*
X22200Y8839D02*X22600Y8439D01*
X23600Y6939D02*Y8039D01*
Y6839D02*Y7039D01*
X22100D02*X22600Y7539D01*
Y8439D01*
X19300Y8839D02*X22200D01*
X18400Y7939D02*X19300Y8839D01*
X18600Y9839D02*X17700Y8939D01*
X19500Y4939D02*X19100Y5339D01*
X14500Y4539D02*Y3239D01*
X19500Y2939D02*Y4939D01*
X19100Y5339D02*X16700D01*
Y2139D02*Y4539D01*
X20300Y6139D02*X21500D01*
X22300Y2739D02*Y1539D01*
X20700Y2939D02*Y2239D01*
X21300Y1539D02*X20700Y2139D01*
X20000Y2339D02*X20200Y2539D01*
X18400Y2939D02*X19000Y2339D01*
X20000D01*
X21300Y3539D02*X20700Y2939D01*
X20200Y2539D02*Y3439D01*
X21200Y4439D01*
X16200Y1939D02*X16600D01*
X16400D02*X20800D01*
X16700Y2339D02*Y1939D01*
X28600Y6939D02*Y6739D01*
X28100Y6239D01*
X28600Y6739D02*X27600Y7739D01*
X26600Y7939D02*Y6739D01*
X26500Y6639D01*
X24000Y839D02*X27300D01*
X27600Y1139D01*
X25500Y2339D02*X24900Y2939D01*
X25500Y1539D02*Y2339D01*
X28100Y4439D02*X27300Y3639D01*
X27200Y2239D02*X27600D01*
X26500Y1539D02*X27200Y2239D01*
X28600Y3939D02*Y2639D01*
X24500Y1639D02*Y1539D01*
X14600Y6439D02*X17800D01*
X14600D02*Y7439D01*
Y6839D02*Y6739D01*
Y8439D02*Y9239D01*
X15100Y9739D02*X16700D01*
X16000Y10739D02*X16800D01*
X17700Y8839D02*X17600D01*
X16700Y9739D02*X17600Y8839D01*
Y8739D01*
X17700Y8939D02*Y8739D01*
X23300Y1539D02*X24000Y839D01*
X23200Y2239D02*X23900D01*
X24500Y1639D01*
X27300Y3639D02*X21300D01*
X21200Y4439D02*X27100D01*
X23600Y7739D02*Y7939D01*
X22900Y6139D02*X23600Y6839D01*
X21400Y6139D02*X22900D01*
X24900Y2939D02*X23600D01*
X22900Y3539D02*Y2539D01*
X23200Y2239D01*
X15200Y7939D02*X18400D01*
X8800Y3439D02*X8600D01*
X7700Y2539D01*
X8700Y2439D02*X10200Y3939D01*
X7700Y2539D02*Y1839D01*
X8800Y5839D02*Y4439D01*
X12200Y4939D02*Y6839D01*
X10200Y3939D02*Y4739D01*
X11600Y5439D02*X11000Y4839D01*
X10900Y6439D02*X11600D01*
X11800Y4539D02*X12200Y4939D01*
X11800Y3339D02*Y4539D01*
X11000Y4839D02*Y1739D01*
X9200Y7439D02*X8800Y7839D01*
X11200Y7939D02*X10400D01*
X11600Y7439D02*X9200D01*
X10200Y5739D02*X10900Y6439D01*
X10100Y5739D02*X10200D01*
X12700Y7739D02*Y4239D01*
X13200Y7839D02*Y5839D01*
X12200Y6839D02*X11600Y7439D01*
X13700Y6339D02*Y7339D01*
X13200Y5839D02*X14500Y4539D01*
X12500Y4039D02*X12700Y4239D01*
X12500Y4039D02*Y3839D01*
X14600Y5439D02*X13700Y6339D01*
X12700Y2439D02*X11800Y3339D01*
X13800Y1939D02*X16300D01*
X13600Y2939D02*Y1739D01*
X12500Y4039D02*X13600Y2939D01*
X14300Y3039D02*X14500Y3239D01*
X13600Y1939D02*X13900D01*
X12300Y4039D02*X12500Y4239D01*
X13700Y7439D02*X14200Y7939D01*
X5700Y2939D02*Y4789D01*
Y5339D02*Y4739D01*
Y5339D02*Y5139D01*
X7400Y5539D02*Y4439D01*
X7700Y5839D02*X7400Y5539D01*
X7700Y8139D02*X10100Y5739D01*
X6200Y2239D02*X7400Y3439D01*
X7700Y1839D02*X7900Y1639D01*
X2500Y1539D02*X3300D01*
X6200Y1439D02*Y2239D01*
X4200Y1439D02*X5700Y2939D01*
X6500Y1139D02*X6200Y1439D01*
X2900Y1939D02*Y1139D01*
X5000Y8839D02*X6700Y10539D01*
X3500Y9239D02*X3900Y9639D01*
X4800D01*
X4000Y8839D02*X5000D01*
X8600Y10539D02*X8800Y10339D01*
X7700Y8239D02*Y9839D01*
X3500Y8439D02*X3800Y8739D01*
X3900D01*
X4000Y8839D01*
X6500Y1139D02*X14300D01*
X7900Y1639D02*X13600D01*
X6700Y10539D02*X8600D01*
X6400Y11139D02*X8700D01*
X6300Y11939D02*X8800D01*
Y10339D02*Y7839D01*
X2600Y7239D02*Y9139D01*
X3800Y10339D02*X2600Y9139D01*
X4700Y10339D02*X6300Y11939D01*
X3800Y10339D02*X4700D01*
X4800Y9639D02*X6300Y11139D01*
X6500D01*
X4500Y8039D02*X4700Y8239D01*
X7600D01*
X5700Y6039D02*Y5139D01*
X4500Y7239D02*X5700Y6039D01*
Y5739D01*
X4500Y7139D02*Y7239D01*
Y8039D02*X4600Y8139D01*
X3000Y6839D02*X2600Y7239D01*
X3000Y6839D02*X4200D01*
X3500Y7639D02*X3700Y7839D01*
X4000D01*
X4200Y8039D01*
X4500D01*
X4200Y6839D02*X4500Y7139D01*
X23700Y14839D02*X24400Y14139D01*
X20200Y14839D02*X23700D01*
X21400Y13939D02*X22200D01*
X21800Y14339D02*Y13539D01*
X24400Y13339D02*X25100Y14039D01*
X24400Y14139D02*Y13339D01*
X25100Y14039D02*X28600D01*
X26600Y13339D02*X25600Y12339D01*
X24400Y12139D02*X25200D01*
X27600Y13339D02*Y10939D01*
X28600Y14039D02*X30900Y11739D01*
X20600Y12939D02*X19800Y12139D01*
X20600Y13939D02*X19300Y12639D01*
X18300Y12939D02*X20200Y14839D01*
X19300Y12639D02*Y10339D01*
X20100Y9539D01*
X19800Y12139D02*Y10639D01*
X20200Y10239D01*
X18600Y12639D02*Y9839D01*
X20100Y9539D02*X23500D01*
X23400Y13339D02*Y11739D01*
X22600Y10939D01*
X17600Y13639D02*X18600Y12639D01*
X14200Y10839D02*Y9639D01*
Y10239D02*Y9739D01*
X14100D01*
Y10239D01*
X12200D02*Y10339D01*
X12100D01*
X13200Y10039D02*Y10139D01*
X12200Y10239D02*X12300Y10339D01*
X14600Y9239D02*X15100Y9739D01*
G54D13*X14300Y7939D02*X15200D01*
G54D11*X13800Y8439D02*X14600D01*
X16400Y11139D02*Y10339D01*
G54D13*X12100Y7939D02*X11200D01*
G54D11*X10400D02*X10200Y8139D01*
X11600Y8439D02*X13200Y10039D01*
X11400Y10839D02*Y8639D01*
X11600Y8439D01*
X12100Y7939D02*X12500D01*
X12200Y10239D02*X12100Y10339D01*
X12500Y7939D02*X12700Y7739D01*
X13800Y8439D02*X13200Y7839D01*
X12500Y7939D02*X14200Y9639D01*
X9300Y12839D02*X10800Y14339D01*
X10700Y12539D02*X10200D01*
X11300Y13639D01*
X10800Y14339D02*X16900D01*
Y12539D02*X16500Y13039D01*
X16900Y14339D02*X16700Y14539D01*
X11300Y13639D02*X17600D01*
X14200Y10839D02*X15500Y12139D01*
X13200Y11739D02*Y10239D01*
Y11739D02*X13500Y12039D01*
Y12139D02*Y12039D01*
X12300Y10339D02*Y12639D01*
X16500Y13039D02*X12700D01*
X17600Y10739D02*Y11939D01*
X16900Y12539D01*
X12300Y12639D02*X12700Y13039D01*
X11400Y10739D02*Y11839D01*
X10700Y12539D01*
X8700Y11139D02*X9700Y10139D01*
X11400D01*
X8800Y11939D02*X9600Y11139D01*
X10300D01*
X8800Y11939D02*X9300Y12439D01*
Y12839D01*
G54D13*X14900Y883D02*X15188D01*
X15260Y955D01*
Y1099D01*
X15188Y1171D02*X15260Y1099D01*
X14972Y1171D02*X15188D01*
X14972Y883D02*Y1459D01*
Y1171D02*X15260Y1459D01*
X15720Y883D02*X15792Y955D01*
X15504Y883D02*X15720D01*
X15432Y955D02*X15504Y883D01*
X15432Y955D02*Y1099D01*
X15504Y1171D01*
X15720D01*
X15792Y1243D01*
Y1387D01*
X15720Y1459D02*X15792Y1387D01*
X15504Y1459D02*X15720D01*
X15432Y1387D02*X15504Y1459D01*
X15965Y955D02*X16037Y883D01*
X16253D01*
X16325Y955D01*
Y1099D01*
X15965Y1459D02*X16325Y1099D01*
X15965Y1459D02*X16325D01*
X16498Y955D02*X16570Y883D01*
X16714D01*
X16786Y955D01*
Y1387D01*
X16714Y1459D02*X16786Y1387D01*
X16570Y1459D02*X16714D01*
X16498Y1387D02*X16570Y1459D01*
Y1171D02*X16786D01*
X16959Y955D02*X17031Y883D01*
X17247D01*
X17319Y955D01*
Y1099D01*
X16959Y1459D02*X17319Y1099D01*
X16959Y1459D02*X17319D01*
X17492Y1171D02*X17780D01*
X17953Y883D02*X18241D01*
X18313Y955D01*
Y1099D01*
X18241Y1171D02*X18313Y1099D01*
X18025Y1171D02*X18241D01*
X18025Y883D02*Y1459D01*
Y1171D02*X18313Y1459D01*
X18774Y883D02*X18846Y955D01*
X18558Y883D02*X18774D01*
X18486Y955D02*X18558Y883D01*
X18486Y955D02*Y1099D01*
X18558Y1171D01*
X18774D01*
X18846Y1243D01*
Y1387D01*
X18774Y1459D02*X18846Y1387D01*
X18558Y1459D02*X18774D01*
X18486Y1387D02*X18558Y1459D01*
X19019Y1171D02*X19307Y883D01*
X19019Y1171D02*X19379D01*
X19307Y883D02*Y1459D01*
X19552Y1387D02*X19624Y1459D01*
X19552Y1243D02*Y1387D01*
Y1243D02*X19624Y1171D01*
X19768D01*
X19840Y1243D01*
Y1387D01*
X19768Y1459D02*X19840Y1387D01*
X19624Y1459D02*X19768D01*
X19552Y1099D02*X19624Y1171D01*
X19552Y955D02*Y1099D01*
Y955D02*X19624Y883D01*
X19768D01*
X19840Y955D01*
Y1099D01*
X19768Y1171D02*X19840Y1099D01*
X20013Y883D02*X20301D01*
X20013D02*Y1171D01*
X20085Y1099D01*
X20229D01*
X20301Y1171D01*
Y1387D01*
X20229Y1459D02*X20301Y1387D01*
X20085Y1459D02*X20229D01*
X20013Y1387D02*X20085Y1459D01*
X870Y1122D02*Y1371D01*
X953Y1454D01*
X1036Y1371D02*X953Y1454D01*
X1036Y1122D02*Y1371D01*
X1119Y1039D02*X1036Y1122D01*
X1119Y1039D02*X1202Y1122D01*
Y1371D01*
X1119Y1454D01*
X953Y1039D02*X870Y1122D01*
X953Y1736D02*X1534D01*
X953D02*X870Y1819D01*
X1285Y1653D02*Y1819D01*
X870Y2068D02*Y2317D01*
X953Y1985D02*X870Y2068D01*
X953Y1985D02*X1119D01*
X1202Y2068D01*
Y2234D01*
X1119Y2317D01*
X1036Y1985D02*Y2317D01*
X1119D01*
X953Y2600D02*X1534D01*
X953D02*X870Y2683D01*
X1285Y2517D02*Y2683D01*
X953Y2932D02*X1534D01*
X953D02*X870Y3015D01*
X1285Y2849D02*Y3015D01*
X870Y3181D02*X1534D01*
X953D02*X870Y3264D01*
Y3430D01*
X953Y3513D01*
X1119D01*
X1202Y3430D02*X1119Y3513D01*
X1202Y3264D02*Y3430D01*
X1119Y3181D02*X1202Y3264D01*
X870Y3795D02*Y4044D01*
X953Y3712D02*X870Y3795D01*
X953Y3712D02*X1119D01*
X1202Y3795D01*
Y3961D01*
X1119Y4044D01*
X1036Y3712D02*Y4044D01*
X1119D01*
X870Y4327D02*X1119D01*
X1202Y4410D01*
Y4576D01*
Y4244D02*X1119Y4327D01*
X1202Y5024D02*X1119Y5107D01*
X1202Y4858D02*Y5024D01*
X1119Y4775D02*X1202Y4858D01*
X953Y4775D02*X1119D01*
X953D02*X870Y4858D01*
Y5024D01*
X953Y5107D01*
X704Y4775D02*X621Y4858D01*
Y5024D01*
X704Y5107D01*
X1202D01*
X870Y5390D02*Y5639D01*
X953Y5307D02*X870Y5390D01*
X953Y5307D02*X1119D01*
X1202Y5390D01*
Y5556D01*
X1119Y5639D01*
X1036Y5307D02*Y5639D01*
X1119D01*
X870Y5921D02*X1119D01*
X1202Y6004D01*
Y6170D01*
Y5838D02*X1119Y5921D01*
X1036Y6369D02*X1534D01*
X1036D02*X870Y6535D01*
Y7033D01*
X1119Y7199D02*X1534D01*
X1700Y7033D01*
Y6535D02*Y7033D01*
Y6535D02*X1534Y6369D01*
X1202Y6618D02*X1368D01*
X1202D02*X1119Y6701D01*
Y6867D01*
X1202Y6950D01*
X1119Y7033D01*
X1202Y6950D02*X1451D01*
X1368D02*X1451Y6867D01*
Y6701D02*Y6867D01*
Y6701D02*X1368Y6618D01*
X1119Y7033D02*Y7199D01*
X870Y7731D02*X1534D01*
X870Y7648D02*X953Y7731D01*
X870Y7482D02*Y7648D01*
X953Y7399D02*X870Y7482D01*
X953Y7399D02*X1119D01*
X1202Y7482D01*
Y7648D01*
X1119Y7731D01*
X953Y7930D02*X1119D01*
X1202Y8013D01*
Y8179D01*
X1119Y8262D01*
X953D02*X1119D01*
X870Y8179D02*X953Y8262D01*
X870Y8013D02*Y8179D01*
X953Y7930D02*X870Y8013D01*
Y8461D02*X1534D01*
X1119D02*X870Y8710D01*
X1119Y8461D02*X1285Y8627D01*
X953Y8910D02*X1202D01*
X953D02*X870Y8993D01*
Y9159D01*
X953Y9242D01*
X1202D01*
Y9524D02*Y9773D01*
X1119Y9441D02*X1202Y9524D01*
X953Y9441D02*X1119D01*
X953D02*X870Y9524D01*
Y9773D01*
X953Y9973D02*X1119D01*
X1202Y10056D01*
Y10222D01*
X1119Y10305D01*
X953D02*X1119D01*
X870Y10222D02*X953Y10305D01*
X870Y10056D02*Y10222D01*
X953Y9973D02*X870Y10056D01*
Y10836D02*X1534D01*
X870Y10753D02*X953Y10836D01*
X870Y10587D02*Y10753D01*
X953Y10504D02*X870Y10587D01*
X953Y10504D02*X1119D01*
X1202Y10587D01*
Y10753D01*
X1119Y10836D01*
X870Y11118D02*Y11367D01*
X953Y11035D02*X870Y11118D01*
X953Y11035D02*X1119D01*
X1202Y11118D01*
Y11284D01*
X1119Y11367D01*
X1036Y11035D02*Y11367D01*
X1119D01*
X870Y11567D02*Y11650D01*
Y12181D02*X1534D01*
X870Y12098D02*X953Y12181D01*
X870Y11932D02*Y12098D01*
X953Y11849D02*X870Y11932D01*
X953Y11849D02*X1119D01*
X1202Y11932D01*
Y12098D01*
X1119Y12181D01*
X870Y12463D02*Y12712D01*
X953Y12380D02*X870Y12463D01*
X953Y12380D02*X1119D01*
X1202Y12463D01*
Y12629D01*
X1119Y12712D01*
X1036Y12380D02*Y12712D01*
X1119D01*
X1183Y14269D02*X1432D01*
X1100Y14186D02*X1183Y14269D01*
X1100Y13688D02*Y14186D01*
Y13688D02*X1183Y13605D01*
X1432D01*
X1631D02*Y14269D01*
Y14020D02*X1714Y13937D01*
X1880D01*
X1963Y14020D01*
Y14269D01*
X2245Y14020D02*Y14269D01*
Y14020D02*X2328Y13937D01*
X2494D01*
X2162D02*X2245Y14020D01*
X2694Y13771D02*Y13854D01*
Y14020D02*Y14269D01*
X2943D02*X3192D01*
X3275Y14186D01*
X3192Y14103D02*X3275Y14186D01*
X2943Y14103D02*X3192D01*
X2860Y14020D02*X2943Y14103D01*
X2860Y14020D02*X2943Y13937D01*
X3192D01*
X3275Y14020D01*
X2860Y14186D02*X2943Y14269D01*
X3557Y13605D02*Y14186D01*
X3640Y14269D01*
X3474Y13854D02*X3640D01*
X3806Y13771D02*Y13854D01*
Y14020D02*Y14269D01*
X4221Y13937D02*X4304Y14020D01*
X4055Y13937D02*X4221D01*
X3972Y14020D02*X4055Y13937D01*
X3972Y14020D02*Y14186D01*
X4055Y14269D01*
X4304Y13937D02*Y14186D01*
X4387Y14269D01*
X4055D02*X4221D01*
X4304Y14186D01*
X4670Y14020D02*Y14269D01*
Y14020D02*X4753Y13937D01*
X4836D01*
X4919Y14020D01*
Y14269D01*
X4587Y13937D02*X4670Y14020D01*
X5500Y13605D02*Y14269D01*
X5749Y13605D02*X5832Y13688D01*
Y14186D01*
X5749Y14269D02*X5832Y14186D01*
X5417Y14269D02*X5749D01*
X5417Y13605D02*X5749D01*
X6031Y13771D02*Y13854D01*
Y14020D02*Y14269D01*
X6281D02*X6530D01*
X6198Y14186D02*X6281Y14269D01*
X6198Y14020D02*Y14186D01*
Y14020D02*X6281Y13937D01*
X6447D01*
X6530Y14020D01*
X6198Y14103D02*X6530D01*
Y14020D02*Y14103D01*
X6812Y13605D02*Y14186D01*
X6895Y14269D01*
X6729Y13854D02*X6895D01*
X7144Y14020D02*Y14269D01*
Y14020D02*X7227Y13937D01*
X7393D01*
X7061D02*X7144Y14020D01*
X7592Y13771D02*Y13854D01*
Y14020D02*Y14269D01*
X7842Y13937D02*X8091D01*
X7759Y14020D02*X7842Y13937D01*
X7759Y14020D02*Y14186D01*
X7842Y14269D01*
X8091D01*
X8290Y13605D02*Y14269D01*
Y14020D02*X8373Y13937D01*
X8539D01*
X8622Y14020D01*
Y14269D01*
G54D12*G36*
X31260Y1479D02*Y799D01*
X31940D01*
Y1479D01*
X31260D01*
G37*
G36*
X31135Y4104D02*Y3374D01*
X31865D01*
Y4104D01*
X31135D01*
G37*
G36*
Y5904D02*Y5174D01*
X31865D01*
Y5904D01*
X31135D01*
G37*
G36*
X31260Y2579D02*Y1899D01*
X31940D01*
Y2579D01*
X31260D01*
G37*
G54D14*X34560Y3219D03*
G54D12*G36*
X33650Y10589D02*Y9889D01*
X34350D01*
Y10589D01*
X33650D01*
G37*
G54D15*X34000Y9159D03*
X35120Y9699D03*
G54D16*Y8619D03*
G54D14*X34560Y12939D03*
G54D15*X34000Y8079D03*
Y6999D03*
Y5919D03*
G54D17*X35120Y7539D03*
G54D15*Y6459D03*
G54D12*G36*
X24085Y13654D02*Y13024D01*
X24715D01*
Y13654D01*
X24085D01*
G37*
G54D18*X23400Y13339D03*
G54D19*X23600Y10939D03*
X22600D03*
X21600D03*
X20600D03*
Y7939D03*
X21600D03*
X22600D03*
X23600D03*
G54D12*G36*
X20285Y14254D02*Y13624D01*
X20915D01*
Y14254D01*
X20285D01*
G37*
G54D18*X20600Y12939D03*
G54D20*X28600Y6739D03*
G54D12*G36*
X27275Y11264D02*Y10614D01*
X27925D01*
Y11264D01*
X27275D01*
G37*
G54D19*X26600Y10939D03*
X25600D03*
G54D12*G36*
X29685Y10154D02*Y9524D01*
X30315D01*
Y10154D01*
X29685D01*
G37*
G54D20*X30000Y10839D03*
G54D19*X24600Y10939D03*
Y7939D03*
X25600D03*
X26600D03*
G54D16*X27600D03*
G54D12*G36*
X27285Y13654D02*Y13024D01*
X27915D01*
Y13654D01*
X27285D01*
G37*
G54D18*X26600Y13339D03*
G54D12*G36*
X21760Y3379D02*Y2699D01*
X22440D01*
Y3379D01*
X21760D01*
G37*
G54D21*X22300Y1539D03*
X23300D03*
G54D12*G36*
X23260Y3279D02*Y2599D01*
X23940D01*
Y3279D01*
X23260D01*
G37*
G54D22*X22100Y7039D03*
G54D12*G36*
X20940Y1899D02*Y1179D01*
X21660D01*
Y1899D01*
X20940D01*
G37*
G36*
X24115Y1924D02*Y1154D01*
X24885D01*
Y1924D01*
X24115D01*
G37*
G54D21*X25500Y1539D03*
X26500D03*
G54D22*X23600Y6939D03*
G54D20*X26600Y6739D03*
G54D12*G36*
X27785Y4754D02*Y4124D01*
X28415D01*
Y4754D01*
X27785D01*
G37*
G54D20*X27100Y4439D03*
G54D22*X27600Y1139D03*
G54D20*X30500Y3739D03*
Y5539D03*
G54D22*X27600Y2239D03*
G54D12*G36*
X16340Y4799D02*Y4079D01*
X17060D01*
Y4799D01*
X16340D01*
G37*
G54D21*X16700Y5439D03*
G54D12*G36*
X18060Y3279D02*Y2599D01*
X18740D01*
Y3279D01*
X18060D01*
G37*
G36*
X19160D02*Y2599D01*
X19840D01*
Y3279D01*
X19160D01*
G37*
G54D18*X13500Y12139D03*
X12700Y2439D03*
X12500Y4039D03*
G54D21*X16700Y6439D03*
G54D12*G36*
X14300Y5739D02*Y5139D01*
X14900D01*
Y5739D01*
X14300D01*
G37*
G54D19*X14600Y6439D03*
Y7439D03*
Y8439D03*
G54D18*X14500Y4039D03*
G54D12*G36*
X11790Y10649D02*Y9829D01*
X12610D01*
Y10649D01*
X11790D01*
G37*
G36*
X9806Y11533D02*Y10745D01*
X10593D01*
Y11533D01*
X9806D01*
G37*
G54D16*X11600Y8439D03*
G54D18*X12200Y12539D03*
X10200D03*
G54D12*G36*
X3609Y2030D02*Y848D01*
X4790D01*
Y2030D01*
X3609D01*
G37*
G54D23*X6200Y1439D03*
G54D19*X11600Y5439D03*
G54D24*X10200Y4739D03*
G54D12*G36*
X8360Y2779D02*Y2099D01*
X9040D01*
Y2779D01*
X8360D01*
G37*
G54D24*X8800Y4439D03*
Y3439D03*
X7400D03*
Y4439D03*
G54D21*X13200Y10239D03*
X14200D03*
G54D12*G36*
X17206Y11133D02*Y10345D01*
X17993D01*
Y11133D01*
X17206D01*
G37*
G54D18*X15500Y12139D03*
G54D22*X18400Y6939D03*
G54D25*X17600Y8739D03*
G54D22*X19500Y6939D03*
G54D16*X11600Y7439D03*
G54D19*Y6439D03*
G54D12*G36*
X7360Y6179D02*Y5499D01*
X8040D01*
Y6179D01*
X7360D01*
G37*
G54D18*X7700Y9839D03*
G54D24*X10200Y8139D03*
G54D12*G36*
X8460Y6179D02*Y5499D01*
X9140D01*
Y6179D01*
X8460D01*
G37*
G54D18*X8800Y9839D03*
G54D24*X10200Y5739D03*
G54D26*X3500Y8439D03*
X4500Y9639D03*
X3500Y9239D03*
X4500Y8839D03*
Y7239D03*
Y8039D03*
X3500Y7639D03*
Y6839D03*
G54D17*X8800Y4439D03*
Y5839D03*
G54D27*X16900Y12539D03*
Y14339D03*
X14300Y3039D03*
Y1139D03*
G54D28*G54D29*G54D28*G54D30*G54D31*G54D30*G54D31*G54D29*G54D32*G54D29*G54D32*G54D29*G54D32*G54D29*G54D28*G54D33*G54D28*G54D33*G54D28*G54D29*G54D28*G54D29*G54D28*G54D33*G54D28*G54D29*G54D28*G54D29*G54D33*G54D32*G54D29*G54D34*G54D35*G54D32*G54D29*G54D36*G54D32*G54D35*G54D28*G54D35*G54D37*G54D34*G54D35*G54D29*G54D28*G54D35*G54D28*G54D32*G54D28*G54D35*G54D28*G54D35*G54D38*G54D37*G54D38*G54D31*M02*
