G04 start of page 5 for group -4062 idx -4062
G04 Title: (unknown), soldermask *
G04 Creator: pcb 20080202 *
G04 CreationDate: Mi 16 Sep 2009 19:53:06 GMT UTC *
G04 For: stettberger *
G04 Format: Gerber/RS-274X *
G04 PCB-Dimensions: 382677 150394 *
G04 PCB-Coordinate-Origin: lower left *
%MOIN*%
%FSLAX24Y24*%
%LNBACKMASK*%
%ADD12C,0.0200*%
%ADD39C,0.2560*%
%ADD40C,0.0810*%
%ADD41C,0.0710*%
%ADD42C,0.0660*%
%ADD43C,0.0740*%
%ADD44C,0.0760*%
%ADD45C,0.0790*%
%ADD46C,0.0880*%
%ADD47C,0.0840*%
%ADD48C,0.1241*%
%ADD49C,0.0847*%
%ADD50C,0.1339*%
%ADD51C,0.0947*%
%ADD52C,0.0690*%
G54D12*G36*
X31230Y1509D02*Y769D01*
X31970D01*
Y1509D01*
X31230D01*
G37*
G36*
X31105Y4134D02*Y3344D01*
X31895D01*
Y4134D01*
X31105D01*
G37*
G36*
Y5934D02*Y5144D01*
X31895D01*
Y5934D01*
X31105D01*
G37*
G36*
X31230Y2609D02*Y1869D01*
X31970D01*
Y2609D01*
X31230D01*
G37*
G54D39*X34560Y3219D03*
G54D12*G36*
X33620Y10619D02*Y9859D01*
X34380D01*
Y10619D01*
X33620D01*
G37*
G54D40*X34000Y9159D03*
X35120Y9699D03*
G54D41*Y8619D03*
G54D39*X34560Y12939D03*
G54D40*X34000Y8079D03*
Y6999D03*
Y5919D03*
G54D42*X35120Y7539D03*
G54D40*Y6459D03*
G54D12*G36*
X24055Y13684D02*Y12994D01*
X24745D01*
Y13684D01*
X24055D01*
G37*
G54D43*X23400Y13339D03*
G54D44*X23600Y10939D03*
X22600D03*
X21600D03*
X20600D03*
Y7939D03*
X21600D03*
X22600D03*
X23600D03*
G54D12*G36*
X20255Y14284D02*Y13594D01*
X20945D01*
Y14284D01*
X20255D01*
G37*
G54D43*X20600Y12939D03*
G54D45*X28600Y6739D03*
G54D12*G36*
X27245Y11294D02*Y10584D01*
X27955D01*
Y11294D01*
X27245D01*
G37*
G54D44*X26600Y10939D03*
X25600D03*
G54D12*G36*
X29655Y10184D02*Y9494D01*
X30345D01*
Y10184D01*
X29655D01*
G37*
G54D45*X30000Y10839D03*
G54D44*X24600Y10939D03*
Y7939D03*
X25600D03*
X26600D03*
G54D41*X27600D03*
G54D12*G36*
X27255Y13684D02*Y12994D01*
X27945D01*
Y13684D01*
X27255D01*
G37*
G54D43*X26600Y13339D03*
G54D12*G36*
X21730Y3409D02*Y2669D01*
X22470D01*
Y3409D01*
X21730D01*
G37*
G54D46*X22300Y1539D03*
X23300D03*
G54D12*G36*
X23230Y3309D02*Y2569D01*
X23970D01*
Y3309D01*
X23230D01*
G37*
G54D47*X22100Y7039D03*
G54D12*G36*
X20910Y1929D02*Y1149D01*
X21690D01*
Y1929D01*
X20910D01*
G37*
G36*
X24085Y1954D02*Y1124D01*
X24915D01*
Y1954D01*
X24085D01*
G37*
G54D46*X25500Y1539D03*
X26500D03*
G54D47*X23600Y6939D03*
G54D45*X26600Y6739D03*
G54D12*G36*
X27755Y4784D02*Y4094D01*
X28445D01*
Y4784D01*
X27755D01*
G37*
G54D45*X27100Y4439D03*
G54D47*X27600Y1139D03*
G54D45*X30500Y3739D03*
Y5539D03*
G54D47*X27600Y2239D03*
G54D12*G36*
X16310Y4829D02*Y4049D01*
X17090D01*
Y4829D01*
X16310D01*
G37*
G54D46*X16700Y5439D03*
G54D12*G36*
X18030Y3309D02*Y2569D01*
X18770D01*
Y3309D01*
X18030D01*
G37*
G36*
X19130D02*Y2569D01*
X19870D01*
Y3309D01*
X19130D01*
G37*
G54D43*X13500Y12139D03*
X12700Y2439D03*
X12500Y4039D03*
G54D46*X16700Y6439D03*
G54D12*G36*
X14270Y5769D02*Y5109D01*
X14930D01*
Y5769D01*
X14270D01*
G37*
G54D44*X14600Y6439D03*
Y7439D03*
Y8439D03*
G54D43*X14500Y4039D03*
G54D12*G36*
X11760Y10679D02*Y9799D01*
X12640D01*
Y10679D01*
X11760D01*
G37*
G36*
X9776Y11563D02*Y10715D01*
X10623D01*
Y11563D01*
X9776D01*
G37*
G54D41*X11600Y8439D03*
G54D43*X12200Y12539D03*
X10200D03*
G54D12*G36*
X3579Y2060D02*Y818D01*
X4820D01*
Y2060D01*
X3579D01*
G37*
G54D48*X6200Y1439D03*
G54D44*X11600Y5439D03*
G54D49*X10200Y4739D03*
G54D12*G36*
X8330Y2809D02*Y2069D01*
X9070D01*
Y2809D01*
X8330D01*
G37*
G54D49*X8800Y4439D03*
Y3439D03*
X7400D03*
Y4439D03*
G54D50*X2600Y5439D03*
G54D46*X13200Y10239D03*
X14200D03*
G54D12*G36*
X17176Y11163D02*Y10315D01*
X18023D01*
Y11163D01*
X17176D01*
G37*
G54D43*X15500Y12139D03*
G54D47*X18400Y6939D03*
G54D51*X17600Y8739D03*
G54D47*X19500Y6939D03*
G54D41*X11600Y7439D03*
G54D44*Y6439D03*
G54D12*G36*
X7330Y6209D02*Y5469D01*
X8070D01*
Y6209D01*
X7330D01*
G37*
G54D43*X7700Y9839D03*
G54D49*X10200Y8139D03*
G54D12*G36*
X8430Y6209D02*Y5469D01*
X9170D01*
Y6209D01*
X8430D01*
G37*
G54D43*X8800Y9839D03*
G54D49*X10200Y5739D03*
G54D52*X3500Y8439D03*
X4500Y9639D03*
X3500Y9239D03*
X4500Y8839D03*
G54D50*X2600Y11339D03*
G54D52*X4500Y7239D03*
Y8039D03*
X3500Y7639D03*
Y6839D03*
M02*
