M48
INCH,TZ
T28C0.038
T30C0.125
T31C0.035
T32C0.028
T33C0.042
T34C0.040
T53C0.032
T54C0.039
T55C0.059
T56C0.036
%
T32
X023600Y010939
X022600Y010939
X021600Y010939
X020600Y010939
X020600Y007939
X021600Y007939
X022600Y007939
X023600Y007939
X027600Y010939
X026600Y010939
X025600Y010939
X024600Y010939
X024600Y007939
X025600Y007939
X026600Y007939
X027600Y007939
X014600Y005439
X014600Y006439
X014600Y007439
X014600Y008439
X011600Y008439
X011600Y005439
X011600Y007439
X011600Y006439
T53
X031500Y003739
X031500Y005539
X024400Y013339
X023400Y013339
X020600Y013939
X020600Y012939
X028600Y006739
X030000Y009839
X030000Y010839
X027600Y013339
X026600Y013339
X026600Y006739
X028100Y004439
X027100Y004439
X030500Y003739
X030500Y005539
X013500Y012139
X012500Y004039
X014500Y004039
X012200Y012539
X010200Y012539
X015500Y012139
T31
X034000Y010239
X034000Y009159
X035120Y009699
X035120Y008619
X034000Y008079
X034000Y006999
X034000Y005919
X035120Y007539
X035120Y006459
X008800Y004439
X008800Y005839
X016900Y012539
X016900Y014339
X014300Y003039
X014300Y001139
T56
X003500Y008439
X004500Y009639
X003500Y009239
X004500Y008839
X004500Y007239
X004500Y008039
X003500Y007639
X003500Y006839
T28
X031600Y001139
X031600Y002239
X022100Y003039
X023600Y002939
X022100Y007039
X023600Y006939
X027600Y001139
X027600Y002239
X018400Y002939
X019500Y002939
X012700Y002439
X008700Y002439
X018400Y006939
X019500Y006939
X007700Y005839
X007700Y009839
X008800Y005839
X008800Y009839
T54
X010200Y011139
X010200Y004739
X008800Y004439
X008800Y003439
X007400Y003439
X007400Y004439
X017600Y010739
X017600Y008739
X010200Y008139
X010200Y005739
T34
X012200Y010239
X013200Y010239
X014200Y010239
T33
X022300Y001539
X023300Y001539
X021300Y001539
X024500Y001539
X025500Y001539
X026500Y001539
X016700Y004439
X016700Y005439
X016700Y006439
T55
X004200Y001439
X006200Y001439
T30
X034560Y003219
X034560Y012939
M30
